<svg xmlns="http://www.w3.org/2000/svg" xml:space="preserve" viewBox="0 0 1920 1080"><g fill="#E4E4E4"><circle cx="25" cy="25" r="1"/><circle cx="49" cy="25" r="1"/><circle cx="73" cy="97" r="1"/><circle cx="121" cy="25" r="1"/><circle cx="145" cy="49" r="1"/><circle cx="169" cy="25" r="1"/><circle cx="25" cy="193" r="1"/><circle cx="49" cy="145" r="1"/><circle cx="49" cy="169" r="1"/><circle cx="73" cy="145" r="1"/><circle cx="97" cy="193" r="1"/><circle cx="121" cy="121" r="1"/><circle cx="121" cy="169" r="1"/><circle cx="145" cy="121" r="1"/><circle cx="145" cy="169" r="1"/><circle cx="169" cy="121" r="1"/><circle cx="313" cy="25" r="1"/><circle cx="337" cy="73" r="1"/><circle cx="361" cy="49" r="1"/><circle cx="361" cy="97" r="1"/><circle cx="241" cy="121" r="1"/><circle cx="265" cy="121" r="1"/><circle cx="265" cy="193" r="1"/><circle cx="289" cy="169" r="1"/><circle cx="337" cy="121" r="1"/><circle cx="337" cy="169" r="1"/><circle cx="361" cy="145" r="1"/><circle cx="361" cy="169" r="1"/><circle cx="361" cy="193" r="1"/><circle cx="409" cy="49" r="1"/><circle cx="433" cy="73" r="1"/><circle cx="433" cy="97" r="1"/><circle cx="457" cy="49" r="1"/><circle cx="457" cy="73" r="1"/><circle cx="481" cy="25" r="1"/><circle cx="481" cy="49" r="1"/><circle cx="481" cy="97" r="1"/><circle cx="529" cy="97" r="1"/><circle cx="577" cy="49" r="1"/><circle cx="577" cy="97" r="1"/><circle cx="409" cy="121" r="1"/><circle cx="481" cy="121" r="1"/><circle cx="481" cy="145" r="1"/><circle cx="481" cy="169" r="1"/><circle cx="505" cy="121" r="1"/><circle cx="529" cy="169" r="1"/><circle cx="553" cy="121" r="1"/><circle cx="553" cy="169" r="1"/><circle cx="577" cy="145" r="1"/><circle cx="601" cy="25" r="1"/><circle cx="601" cy="73" r="1"/><circle cx="625" cy="25" r="1"/><circle cx="625" cy="97" r="1"/><circle cx="649" cy="97" r="1"/><circle cx="697" cy="49" r="1"/><circle cx="721" cy="73" r="1"/><circle cx="745" cy="97" r="1"/><circle cx="769" cy="73" r="1"/><circle cx="601" cy="121" r="1"/><circle cx="625" cy="121" r="1"/><circle cx="625" cy="169" r="1"/><circle cx="649" cy="121" r="1"/><circle cx="673" cy="145" r="1"/><circle cx="697" cy="121" r="1"/><circle cx="697" cy="169" r="1"/><circle cx="721" cy="121" r="1"/><circle cx="721" cy="169" r="1"/><circle cx="745" cy="121" r="1"/><circle cx="745" cy="193" r="1"/><circle cx="769" cy="121" r="1"/><circle cx="769" cy="193" r="1"/><circle cx="793" cy="25" r="1"/><circle cx="793" cy="73" r="1"/><circle cx="841" cy="49" r="1"/><circle cx="841" cy="73" r="1"/><circle cx="865" cy="49" r="1"/><circle cx="865" cy="97" r="1"/><circle cx="913" cy="73" r="1"/><circle cx="793" cy="169" r="1"/><circle cx="817" cy="193" r="1"/><circle cx="841" cy="145" r="1"/><circle cx="841" cy="169" r="1"/><circle cx="913" cy="193" r="1"/><circle cx="937" cy="169" r="1"/><circle cx="937" cy="193" r="1"/><circle cx="961" cy="121" r="1"/><circle cx="961" cy="169" r="1"/><circle cx="985" cy="49" r="1"/><circle cx="1105" cy="25" r="1"/><circle cx="1105" cy="97" r="1"/><circle cx="1129" cy="49" r="1"/><circle cx="1129" cy="97" r="1"/><circle cx="1153" cy="97" r="1"/><circle cx="1009" cy="193" r="1"/><circle cx="1033" cy="121" r="1"/><circle cx="1033" cy="145" r="1"/><circle cx="1057" cy="193" r="1"/><circle cx="1081" cy="121" r="1"/><circle cx="1105" cy="193" r="1"/><circle cx="1129" cy="169" r="1"/><circle cx="1153" cy="145" r="1"/><circle cx="1153" cy="169" r="1"/><circle cx="1177" cy="97" r="1"/><circle cx="1201" cy="73" r="1"/><circle cx="1201" cy="97" r="1"/><circle cx="1249" cy="97" r="1"/><circle cx="1273" cy="49" r="1"/><circle cx="1321" cy="73" r="1"/><circle cx="1177" cy="121" r="1"/><circle cx="1177" cy="169" r="1"/><circle cx="1201" cy="145" r="1"/><circle cx="1321" cy="169" r="1"/><circle cx="1489" cy="49" r="1"/><circle cx="1369" cy="145" r="1"/><circle cx="1441" cy="145" r="1"/><circle cx="1465" cy="145" r="1"/><circle cx="1465" cy="193" r="1"/><circle cx="1489" cy="169" r="1"/><circle cx="1585" cy="73" r="1"/><circle cx="1609" cy="97" r="1"/><circle cx="1633" cy="25" r="1"/><circle cx="1657" cy="25" r="1"/><circle cx="1681" cy="25" r="1"/><circle cx="1705" cy="49" r="1"/><circle cx="1705" cy="73" r="1"/><circle cx="1729" cy="49" r="1"/><circle cx="1561" cy="145" r="1"/><circle cx="1657" cy="169" r="1"/><circle cx="1657" cy="193" r="1"/><circle cx="1705" cy="193" r="1"/><circle cx="1753" cy="49" r="1"/><circle cx="1753" cy="97" r="1"/><circle cx="1777" cy="49" r="1"/><circle cx="1825" cy="73" r="1"/><circle cx="1849" cy="73" r="1"/><circle cx="1873" cy="25" r="1"/><circle cx="1" cy="25" r="1"/><circle cx="1" cy="121" r="1"/><circle cx="49" cy="1" r="1"/><circle cx="145" cy="1" r="1"/><circle cx="169" cy="1" r="1"/><circle cx="193" cy="1" r="1"/><circle cx="241" cy="1" r="1"/><circle cx="313" cy="1" r="1"/><circle cx="361" cy="1" r="1"/><circle cx="529" cy="1" r="1"/><circle cx="553" cy="1" r="1"/><circle cx="793" cy="1" r="1"/><circle cx="913" cy="1" r="1"/><circle cx="985" cy="1" r="1"/><circle cx="1273" cy="1" r="1"/><circle cx="1321" cy="1" r="1"/><circle cx="1393" cy="1" r="1"/><circle cx="1633" cy="1" r="1"/><circle cx="1657" cy="1" r="1"/><circle cx="1729" cy="1" r="1"/><circle cx="1873" cy="1" r="1"/><circle cx="1753" cy="121" r="1"/><circle cx="1801" cy="121" r="1"/><circle cx="1825" cy="193" r="1"/><circle cx="1873" cy="121" r="1"/><circle cx="25" cy="313" r="1"/><circle cx="49" cy="289" r="1"/><circle cx="73" cy="289" r="1"/><circle cx="73" cy="313" r="1"/><circle cx="97" cy="289" r="1"/><circle cx="97" cy="313" r="1"/><circle cx="121" cy="241" r="1"/><circle cx="121" cy="289" r="1"/><circle cx="145" cy="313" r="1"/><circle cx="25" cy="337" r="1"/><circle cx="73" cy="385" r="1"/><circle cx="97" cy="409" r="1"/><circle cx="121" cy="385" r="1"/><circle cx="145" cy="361" r="1"/><circle cx="169" cy="361" r="1"/><circle cx="193" cy="361" r="1"/><circle cx="193" cy="385" r="1"/><circle cx="217" cy="265" r="1"/><circle cx="241" cy="313" r="1"/><circle cx="265" cy="313" r="1"/><circle cx="289" cy="241" r="1"/><circle cx="289" cy="289" r="1"/><circle cx="289" cy="313" r="1"/><circle cx="337" cy="265" r="1"/><circle cx="337" cy="289" r="1"/><circle cx="337" cy="313" r="1"/><circle cx="361" cy="241" r="1"/><circle cx="361" cy="289" r="1"/><circle cx="361" cy="313" r="1"/><circle cx="385" cy="241" r="1"/><circle cx="385" cy="289" r="1"/><circle cx="265" cy="409" r="1"/><circle cx="289" cy="361" r="1"/><circle cx="361" cy="385" r="1"/><circle cx="361" cy="409" r="1"/><circle cx="385" cy="337" r="1"/><circle cx="385" cy="361" r="1"/><circle cx="385" cy="385" r="1"/><circle cx="385" cy="409" r="1"/><circle cx="433" cy="241" r="1"/><circle cx="433" cy="289" r="1"/><circle cx="457" cy="313" r="1"/><circle cx="505" cy="289" r="1"/><circle cx="529" cy="289" r="1"/><circle cx="553" cy="289" r="1"/><circle cx="577" cy="241" r="1"/><circle cx="577" cy="289" r="1"/><circle cx="409" cy="337" r="1"/><circle cx="409" cy="361" r="1"/><circle cx="433" cy="409" r="1"/><circle cx="457" cy="337" r="1"/><circle cx="457" cy="409" r="1"/><circle cx="553" cy="385" r="1"/><circle cx="553" cy="409" r="1"/><circle cx="601" cy="241" r="1"/><circle cx="625" cy="265" r="1"/><circle cx="649" cy="265" r="1"/><circle cx="697" cy="265" r="1"/><circle cx="721" cy="241" r="1"/><circle cx="601" cy="337" r="1"/><circle cx="625" cy="385" r="1"/><circle cx="625" cy="409" r="1"/><circle cx="649" cy="361" r="1"/><circle cx="673" cy="409" r="1"/><circle cx="721" cy="337" r="1"/><circle cx="721" cy="361" r="1"/><circle cx="721" cy="409" r="1"/><circle cx="745" cy="361" r="1"/><circle cx="769" cy="337" r="1"/><circle cx="793" cy="241" r="1"/><circle cx="793" cy="289" r="1"/><circle cx="817" cy="241" r="1"/><circle cx="817" cy="313" r="1"/><circle cx="841" cy="241" r="1"/><circle cx="841" cy="289" r="1"/><circle cx="865" cy="265" r="1"/><circle cx="937" cy="289" r="1"/><circle cx="961" cy="313" r="1"/><circle cx="793" cy="337" r="1"/><circle cx="793" cy="361" r="1"/><circle cx="793" cy="385" r="1"/><circle cx="817" cy="361" r="1"/><circle cx="817" cy="385" r="1"/><circle cx="961" cy="385" r="1"/><circle cx="961" cy="409" r="1"/><circle cx="985" cy="241" r="1"/><circle cx="985" cy="289" r="1"/><circle cx="1009" cy="241" r="1"/><circle cx="1033" cy="241" r="1"/><circle cx="1057" cy="313" r="1"/><circle cx="1081" cy="313" r="1"/><circle cx="1105" cy="241" r="1"/><circle cx="1105" cy="313" r="1"/><circle cx="1129" cy="241" r="1"/><circle cx="1153" cy="241" r="1"/><circle cx="1153" cy="265" r="1"/><circle cx="1153" cy="289" r="1"/><circle cx="1009" cy="337" r="1"/><circle cx="1009" cy="409" r="1"/><circle cx="1033" cy="385" r="1"/><circle cx="1105" cy="337" r="1"/><circle cx="1105" cy="385" r="1"/><circle cx="1105" cy="409" r="1"/><circle cx="1129" cy="337" r="1"/><circle cx="1129" cy="361" r="1"/><circle cx="1129" cy="385" r="1"/><circle cx="1129" cy="409" r="1"/><circle cx="1225" cy="289" r="1"/><circle cx="1249" cy="289" r="1"/><circle cx="1297" cy="241" r="1"/><circle cx="1297" cy="313" r="1"/><circle cx="1345" cy="313" r="1"/><circle cx="1177" cy="337" r="1"/><circle cx="1177" cy="385" r="1"/><circle cx="1201" cy="361" r="1"/><circle cx="1201" cy="385" r="1"/><circle cx="1225" cy="409" r="1"/><circle cx="1249" cy="337" r="1"/><circle cx="1249" cy="361" r="1"/><circle cx="1249" cy="385" r="1"/><circle cx="1297" cy="385" r="1"/><circle cx="1345" cy="337" r="1"/><circle cx="1345" cy="361" r="1"/><circle cx="1345" cy="409" r="1"/><circle cx="1393" cy="265" r="1"/><circle cx="1393" cy="289" r="1"/><circle cx="1513" cy="265" r="1"/><circle cx="1369" cy="409" r="1"/><circle cx="1393" cy="361" r="1"/><circle cx="1393" cy="385" r="1"/><circle cx="1417" cy="337" r="1"/><circle cx="1417" cy="409" r="1"/><circle cx="1465" cy="361" r="1"/><circle cx="1465" cy="385" r="1"/><circle cx="1465" cy="409" r="1"/><circle cx="1489" cy="337" r="1"/><circle cx="1489" cy="409" r="1"/><circle cx="1513" cy="409" r="1"/><circle cx="1537" cy="409" r="1"/><circle cx="1561" cy="289" r="1"/><circle cx="1561" cy="313" r="1"/><circle cx="1585" cy="241" r="1"/><circle cx="1609" cy="265" r="1"/><circle cx="1633" cy="313" r="1"/><circle cx="1657" cy="289" r="1"/><circle cx="1657" cy="313" r="1"/><circle cx="1681" cy="289" r="1"/><circle cx="1705" cy="289" r="1"/><circle cx="1561" cy="385" r="1"/><circle cx="1585" cy="361" r="1"/><circle cx="1609" cy="385" r="1"/><circle cx="1657" cy="361" r="1"/><circle cx="1681" cy="337" r="1"/><circle cx="1681" cy="385" r="1"/><circle cx="1681" cy="409" r="1"/><circle cx="1705" cy="337" r="1"/><circle cx="1705" cy="361" r="1"/><circle cx="1705" cy="385" r="1"/><circle cx="1705" cy="409" r="1"/><circle cx="1729" cy="337" r="1"/><circle cx="1753" cy="265" r="1"/><circle cx="1753" cy="289" r="1"/><circle cx="1801" cy="241" r="1"/><circle cx="1801" cy="289" r="1"/><circle cx="1801" cy="313" r="1"/><circle cx="1825" cy="265" r="1"/><circle cx="1849" cy="313" r="1"/><circle cx="1873" cy="241" r="1"/><circle cx="1" cy="265" r="1"/><circle cx="49" cy="217" r="1"/><circle cx="73" cy="217" r="1"/><circle cx="121" cy="217" r="1"/><circle cx="217" cy="217" r="1"/><circle cx="265" cy="217" r="1"/><circle cx="313" cy="217" r="1"/><circle cx="361" cy="217" r="1"/><circle cx="529" cy="217" r="1"/><circle cx="553" cy="217" r="1"/><circle cx="577" cy="217" r="1"/><circle cx="649" cy="217" r="1"/><circle cx="889" cy="217" r="1"/><circle cx="1105" cy="217" r="1"/><circle cx="1201" cy="217" r="1"/><circle cx="1273" cy="217" r="1"/><circle cx="1417" cy="217" r="1"/><circle cx="1537" cy="217" r="1"/><circle cx="1585" cy="217" r="1"/><circle cx="1681" cy="217" r="1"/><circle cx="1729" cy="217" r="1"/><circle cx="1777" cy="217" r="1"/><circle cx="1849" cy="217" r="1"/><circle cx="1825" cy="385" r="1"/><circle cx="1849" cy="337" r="1"/><circle cx="1873" cy="337" r="1"/><circle cx="1873" cy="385" r="1"/><circle cx="1873" cy="409" r="1"/><circle cx="25" cy="505" r="1"/><circle cx="49" cy="457" r="1"/><circle cx="49" cy="481" r="1"/><circle cx="49" cy="505" r="1"/><circle cx="73" cy="457" r="1"/><circle cx="97" cy="457" r="1"/><circle cx="145" cy="505" r="1"/><circle cx="193" cy="505" r="1"/><circle cx="25" cy="553" r="1"/><circle cx="25" cy="625" r="1"/><circle cx="49" cy="577" r="1"/><circle cx="73" cy="553" r="1"/><circle cx="145" cy="553" r="1"/><circle cx="145" cy="577" r="1"/><circle cx="169" cy="601" r="1"/><circle cx="265" cy="505" r="1"/><circle cx="313" cy="457" r="1"/><circle cx="361" cy="457" r="1"/><circle cx="361" cy="529" r="1"/><circle cx="385" cy="457" r="1"/><circle cx="217" cy="553" r="1"/><circle cx="217" cy="601" r="1"/><circle cx="217" cy="625" r="1"/><circle cx="241" cy="553" r="1"/><circle cx="337" cy="625" r="1"/><circle cx="361" cy="553" r="1"/><circle cx="361" cy="577" r="1"/><circle cx="361" cy="601" r="1"/><circle cx="361" cy="625" r="1"/><circle cx="385" cy="553" r="1"/><circle cx="385" cy="577" r="1"/><circle cx="385" cy="625" r="1"/><circle cx="409" cy="481" r="1"/><circle cx="433" cy="457" r="1"/><circle cx="481" cy="457" r="1"/><circle cx="481" cy="529" r="1"/><circle cx="529" cy="457" r="1"/><circle cx="529" cy="529" r="1"/><circle cx="553" cy="481" r="1"/><circle cx="577" cy="505" r="1"/><circle cx="409" cy="553" r="1"/><circle cx="409" cy="577" r="1"/><circle cx="433" cy="553" r="1"/><circle cx="433" cy="577" r="1"/><circle cx="433" cy="625" r="1"/><circle cx="457" cy="553" r="1"/><circle cx="481" cy="577" r="1"/><circle cx="481" cy="601" r="1"/><circle cx="505" cy="601" r="1"/><circle cx="529" cy="553" r="1"/><circle cx="529" cy="601" r="1"/><circle cx="553" cy="553" r="1"/><circle cx="577" cy="625" r="1"/><circle cx="625" cy="457" r="1"/><circle cx="649" cy="457" r="1"/><circle cx="649" cy="481" r="1"/><circle cx="649" cy="505" r="1"/><circle cx="673" cy="481" r="1"/><circle cx="673" cy="505" r="1"/><circle cx="721" cy="481" r="1"/><circle cx="721" cy="529" r="1"/><circle cx="745" cy="481" r="1"/><circle cx="601" cy="553" r="1"/><circle cx="625" cy="577" r="1"/><circle cx="625" cy="601" r="1"/><circle cx="649" cy="553" r="1"/><circle cx="649" cy="625" r="1"/><circle cx="673" cy="577" r="1"/><circle cx="697" cy="553" r="1"/><circle cx="745" cy="625" r="1"/><circle cx="793" cy="457" r="1"/><circle cx="817" cy="481" r="1"/><circle cx="913" cy="457" r="1"/><circle cx="961" cy="505" r="1"/><circle cx="793" cy="553" r="1"/><circle cx="793" cy="601" r="1"/><circle cx="817" cy="577" r="1"/><circle cx="865" cy="625" r="1"/><circle cx="889" cy="577" r="1"/><circle cx="985" cy="481" r="1"/><circle cx="1033" cy="457" r="1"/><circle cx="1057" cy="457" r="1"/><circle cx="1081" cy="457" r="1"/><circle cx="1081" cy="505" r="1"/><circle cx="1081" cy="529" r="1"/><circle cx="1105" cy="505" r="1"/><circle cx="1153" cy="457" r="1"/><circle cx="985" cy="601" r="1"/><circle cx="1009" cy="577" r="1"/><circle cx="1057" cy="625" r="1"/><circle cx="1105" cy="577" r="1"/><circle cx="1105" cy="601" r="1"/><circle cx="1129" cy="601" r="1"/><circle cx="1177" cy="481" r="1"/><circle cx="1201" cy="529" r="1"/><circle cx="1249" cy="505" r="1"/><circle cx="1273" cy="457" r="1"/><circle cx="1321" cy="457" r="1"/><circle cx="1321" cy="505" r="1"/><circle cx="1345" cy="505" r="1"/><circle cx="1177" cy="577" r="1"/><circle cx="1225" cy="553" r="1"/><circle cx="1225" cy="601" r="1"/><circle cx="1225" cy="625" r="1"/><circle cx="1249" cy="577" r="1"/><circle cx="1249" cy="625" r="1"/><circle cx="1345" cy="577" r="1"/><circle cx="1369" cy="457" r="1"/><circle cx="1369" cy="481" r="1"/><circle cx="1393" cy="505" r="1"/><circle cx="1417" cy="505" r="1"/><circle cx="1489" cy="457" r="1"/><circle cx="1369" cy="601" r="1"/><circle cx="1393" cy="601" r="1"/><circle cx="1465" cy="553" r="1"/><circle cx="1465" cy="625" r="1"/><circle cx="1489" cy="553" r="1"/><circle cx="1513" cy="625" r="1"/><circle cx="1537" cy="625" r="1"/><circle cx="1561" cy="505" r="1"/><circle cx="1609" cy="457" r="1"/><circle cx="1609" cy="529" r="1"/><circle cx="1633" cy="505" r="1"/><circle cx="1681" cy="505" r="1"/><circle cx="1705" cy="505" r="1"/><circle cx="1705" cy="529" r="1"/><circle cx="1585" cy="601" r="1"/><circle cx="1609" cy="625" r="1"/><circle cx="1705" cy="553" r="1"/><circle cx="1729" cy="625" r="1"/><circle cx="1753" cy="505" r="1"/><circle cx="1777" cy="457" r="1"/><circle cx="1777" cy="481" r="1"/><circle cx="1777" cy="529" r="1"/><circle cx="1801" cy="457" r="1"/><circle cx="1801" cy="505" r="1"/><circle cx="1849" cy="457" r="1"/><circle cx="1849" cy="481" r="1"/><circle cx="1" cy="481" r="1"/><circle cx="1" cy="529" r="1"/><circle cx="1" cy="577" r="1"/><circle cx="1" cy="601" r="1"/><circle cx="97" cy="433" r="1"/><circle cx="169" cy="433" r="1"/><circle cx="289" cy="433" r="1"/><circle cx="385" cy="433" r="1"/><circle cx="529" cy="433" r="1"/><circle cx="553" cy="433" r="1"/><circle cx="577" cy="433" r="1"/><circle cx="697" cy="433" r="1"/><circle cx="745" cy="433" r="1"/><circle cx="1081" cy="433" r="1"/><circle cx="1129" cy="433" r="1"/><circle cx="1225" cy="433" r="1"/><circle cx="1465" cy="433" r="1"/><circle cx="1489" cy="433" r="1"/><circle cx="1513" cy="433" r="1"/><circle cx="1585" cy="433" r="1"/><circle cx="1633" cy="433" r="1"/><circle cx="1849" cy="433" r="1"/><circle cx="1873" cy="433" r="1"/><circle cx="1873" cy="481" r="1"/><circle cx="1777" cy="625" r="1"/><circle cx="1873" cy="553" r="1"/><circle cx="1873" cy="577" r="1"/><circle cx="25" cy="745" r="1"/><circle cx="49" cy="697" r="1"/><circle cx="73" cy="721" r="1"/><circle cx="97" cy="697" r="1"/><circle cx="121" cy="697" r="1"/><circle cx="121" cy="745" r="1"/><circle cx="145" cy="697" r="1"/><circle cx="169" cy="721" r="1"/><circle cx="169" cy="745" r="1"/><circle cx="193" cy="697" r="1"/><circle cx="193" cy="721" r="1"/><circle cx="25" cy="841" r="1"/><circle cx="49" cy="769" r="1"/><circle cx="49" cy="817" r="1"/><circle cx="73" cy="769" r="1"/><circle cx="97" cy="817" r="1"/><circle cx="97" cy="841" r="1"/><circle cx="193" cy="793" r="1"/><circle cx="193" cy="841" r="1"/><circle cx="265" cy="697" r="1"/><circle cx="313" cy="745" r="1"/><circle cx="337" cy="721" r="1"/><circle cx="385" cy="697" r="1"/><circle cx="385" cy="745" r="1"/><circle cx="217" cy="769" r="1"/><circle cx="241" cy="769" r="1"/><circle cx="265" cy="817" r="1"/><circle cx="289" cy="793" r="1"/><circle cx="337" cy="841" r="1"/><circle cx="361" cy="817" r="1"/><circle cx="361" cy="841" r="1"/><circle cx="385" cy="769" r="1"/><circle cx="385" cy="841" r="1"/><circle cx="409" cy="721" r="1"/><circle cx="433" cy="745" r="1"/><circle cx="457" cy="673" r="1"/><circle cx="457" cy="697" r="1"/><circle cx="457" cy="745" r="1"/><circle cx="505" cy="697" r="1"/><circle cx="505" cy="721" r="1"/><circle cx="505" cy="745" r="1"/><circle cx="529" cy="745" r="1"/><circle cx="553" cy="673" r="1"/><circle cx="553" cy="697" r="1"/><circle cx="553" cy="745" r="1"/><circle cx="577" cy="721" r="1"/><circle cx="457" cy="769" r="1"/><circle cx="457" cy="817" r="1"/><circle cx="481" cy="769" r="1"/><circle cx="481" cy="793" r="1"/><circle cx="481" cy="817" r="1"/><circle cx="481" cy="841" r="1"/><circle cx="505" cy="793" r="1"/><circle cx="529" cy="793" r="1"/><circle cx="577" cy="769" r="1"/><circle cx="577" cy="793" r="1"/><circle cx="577" cy="817" r="1"/><circle cx="601" cy="697" r="1"/><circle cx="601" cy="745" r="1"/><circle cx="625" cy="745" r="1"/><circle cx="649" cy="721" r="1"/><circle cx="649" cy="745" r="1"/><circle cx="673" cy="673" r="1"/><circle cx="673" cy="697" r="1"/><circle cx="745" cy="721" r="1"/><circle cx="769" cy="721" r="1"/><circle cx="769" cy="745" r="1"/><circle cx="697" cy="817" r="1"/><circle cx="721" cy="793" r="1"/><circle cx="745" cy="769" r="1"/><circle cx="745" cy="793" r="1"/><circle cx="745" cy="817" r="1"/><circle cx="769" cy="841" r="1"/><circle cx="817" cy="673" r="1"/><circle cx="841" cy="697" r="1"/><circle cx="841" cy="721" r="1"/><circle cx="841" cy="745" r="1"/><circle cx="865" cy="721" r="1"/><circle cx="889" cy="673" r="1"/><circle cx="937" cy="697" r="1"/><circle cx="817" cy="817" r="1"/><circle cx="841" cy="769" r="1"/><circle cx="841" cy="793" r="1"/><circle cx="841" cy="817" r="1"/><circle cx="865" cy="769" r="1"/><circle cx="865" cy="841" r="1"/><circle cx="913" cy="769" r="1"/><circle cx="913" cy="793" r="1"/><circle cx="913" cy="841" r="1"/><circle cx="937" cy="769" r="1"/><circle cx="937" cy="841" r="1"/><circle cx="985" cy="673" r="1"/><circle cx="1081" cy="721" r="1"/><circle cx="1105" cy="673" r="1"/><circle cx="1105" cy="721" r="1"/><circle cx="1105" cy="745" r="1"/><circle cx="1129" cy="697" r="1"/><circle cx="1129" cy="721" r="1"/><circle cx="1153" cy="673" r="1"/><circle cx="985" cy="769" r="1"/><circle cx="985" cy="841" r="1"/><circle cx="1033" cy="793" r="1"/><circle cx="1057" cy="841" r="1"/><circle cx="1105" cy="817" r="1"/><circle cx="1105" cy="841" r="1"/><circle cx="1129" cy="769" r="1"/><circle cx="1129" cy="817" r="1"/><circle cx="1201" cy="745" r="1"/><circle cx="1273" cy="697" r="1"/><circle cx="1273" cy="745" r="1"/><circle cx="1297" cy="697" r="1"/><circle cx="1297" cy="721" r="1"/><circle cx="1201" cy="769" r="1"/><circle cx="1225" cy="817" r="1"/><circle cx="1249" cy="769" r="1"/><circle cx="1249" cy="841" r="1"/><circle cx="1273" cy="817" r="1"/><circle cx="1297" cy="841" r="1"/><circle cx="1321" cy="769" r="1"/><circle cx="1321" cy="817" r="1"/><circle cx="1345" cy="769" r="1"/><circle cx="1345" cy="793" r="1"/><circle cx="1345" cy="841" r="1"/><circle cx="1369" cy="745" r="1"/><circle cx="1417" cy="721" r="1"/><circle cx="1465" cy="745" r="1"/><circle cx="1513" cy="697" r="1"/><circle cx="1513" cy="721" r="1"/><circle cx="1537" cy="673" r="1"/><circle cx="1537" cy="721" r="1"/><circle cx="1369" cy="817" r="1"/><circle cx="1369" cy="841" r="1"/><circle cx="1441" cy="793" r="1"/><circle cx="1441" cy="841" r="1"/><circle cx="1513" cy="793" r="1"/><circle cx="1561" cy="697" r="1"/><circle cx="1585" cy="673" r="1"/><circle cx="1609" cy="721" r="1"/><circle cx="1633" cy="745" r="1"/><circle cx="1657" cy="745" r="1"/><circle cx="1681" cy="721" r="1"/><circle cx="1705" cy="721" r="1"/><circle cx="1729" cy="697" r="1"/><circle cx="1729" cy="721" r="1"/><circle cx="1561" cy="841" r="1"/><circle cx="1585" cy="793" r="1"/><circle cx="1585" cy="841" r="1"/><circle cx="1609" cy="817" r="1"/><circle cx="1633" cy="817" r="1"/><circle cx="1657" cy="817" r="1"/><circle cx="1681" cy="817" r="1"/><circle cx="1753" cy="697" r="1"/><circle cx="1753" cy="745" r="1"/><circle cx="1777" cy="745" r="1"/><circle cx="1801" cy="673" r="1"/><circle cx="1825" cy="745" r="1"/><circle cx="25" cy="649" r="1"/><circle cx="1" cy="793" r="1"/><circle cx="1" cy="817" r="1"/><circle cx="1" cy="841" r="1"/><circle cx="1" cy="649" r="1"/><circle cx="73" cy="649" r="1"/><circle cx="97" cy="649" r="1"/><circle cx="193" cy="649" r="1"/><circle cx="265" cy="649" r="1"/><circle cx="433" cy="649" r="1"/><circle cx="457" cy="649" r="1"/><circle cx="505" cy="649" r="1"/><circle cx="673" cy="649" r="1"/><circle cx="841" cy="649" r="1"/><circle cx="889" cy="649" r="1"/><circle cx="937" cy="649" r="1"/><circle cx="961" cy="649" r="1"/><circle cx="1009" cy="649" r="1"/><circle cx="1057" cy="649" r="1"/><circle cx="1081" cy="649" r="1"/><circle cx="1153" cy="649" r="1"/><circle cx="1273" cy="649" r="1"/><circle cx="1369" cy="649" r="1"/><circle cx="1393" cy="649" r="1"/><circle cx="1417" cy="649" r="1"/><circle cx="1441" cy="649" r="1"/><circle cx="1513" cy="649" r="1"/><circle cx="1585" cy="649" r="1"/><circle cx="1633" cy="649" r="1"/><circle cx="1681" cy="649" r="1"/><circle cx="1753" cy="649" r="1"/><circle cx="1873" cy="649" r="1"/><circle cx="1873" cy="697" r="1"/><circle cx="1753" cy="841" r="1"/><circle cx="1777" cy="769" r="1"/><circle cx="1777" cy="793" r="1"/><circle cx="1801" cy="793" r="1"/><circle cx="1801" cy="817" r="1"/><circle cx="1849" cy="793" r="1"/><circle cx="1873" cy="769" r="1"/><circle cx="1873" cy="817" r="1"/><circle cx="25" cy="889" r="1"/><circle cx="49" cy="889" r="1"/><circle cx="49" cy="913" r="1"/><circle cx="73" cy="889" r="1"/><circle cx="121" cy="889" r="1"/><circle cx="145" cy="865" r="1"/><circle cx="169" cy="865" r="1"/><circle cx="193" cy="913" r="1"/><circle cx="25" cy="961" r="1"/><circle cx="73" cy="937" r="1"/><circle cx="97" cy="961" r="1"/><circle cx="121" cy="937" r="1"/><circle cx="121" cy="1009" r="1"/><circle cx="145" cy="961" r="1"/><circle cx="145" cy="1009" r="1"/><circle cx="169" cy="937" r="1"/><circle cx="169" cy="961" r="1"/><circle cx="169" cy="985" r="1"/><circle cx="169" cy="1009" r="1"/><circle cx="193" cy="937" r="1"/><circle cx="241" cy="865" r="1"/><circle cx="265" cy="865" r="1"/><circle cx="265" cy="889" r="1"/><circle cx="337" cy="865" r="1"/><circle cx="265" cy="961" r="1"/><circle cx="265" cy="985" r="1"/><circle cx="289" cy="1009" r="1"/><circle cx="313" cy="985" r="1"/><circle cx="337" cy="937" r="1"/><circle cx="337" cy="961" r="1"/><circle cx="337" cy="985" r="1"/><circle cx="361" cy="961" r="1"/><circle cx="361" cy="985" r="1"/><circle cx="385" cy="985" r="1"/><circle cx="481" cy="865" r="1"/><circle cx="481" cy="889" r="1"/><circle cx="505" cy="865" r="1"/><circle cx="529" cy="865" r="1"/><circle cx="577" cy="889" r="1"/><circle cx="409" cy="985" r="1"/><circle cx="409" cy="1009" r="1"/><circle cx="433" cy="961" r="1"/><circle cx="457" cy="961" r="1"/><circle cx="457" cy="985" r="1"/><circle cx="505" cy="961" r="1"/><circle cx="505" cy="985" r="1"/><circle cx="505" cy="1009" r="1"/><circle cx="553" cy="1009" r="1"/><circle cx="601" cy="865" r="1"/><circle cx="601" cy="889" r="1"/><circle cx="673" cy="889" r="1"/><circle cx="745" cy="889" r="1"/><circle cx="769" cy="889" r="1"/><circle cx="769" cy="913" r="1"/><circle cx="601" cy="937" r="1"/><circle cx="601" cy="985" r="1"/><circle cx="649" cy="1009" r="1"/><circle cx="697" cy="937" r="1"/><circle cx="745" cy="985" r="1"/><circle cx="745" cy="1009" r="1"/><circle cx="769" cy="937" r="1"/><circle cx="769" cy="1009" r="1"/><circle cx="817" cy="889" r="1"/><circle cx="889" cy="865" r="1"/><circle cx="937" cy="889" r="1"/><circle cx="961" cy="865" r="1"/><circle cx="793" cy="937" r="1"/><circle cx="793" cy="961" r="1"/><circle cx="817" cy="961" r="1"/><circle cx="841" cy="937" r="1"/><circle cx="913" cy="961" r="1"/><circle cx="913" cy="985" r="1"/><circle cx="961" cy="961" r="1"/><circle cx="985" cy="865" r="1"/><circle cx="1033" cy="889" r="1"/><circle cx="1057" cy="889" r="1"/><circle cx="1057" cy="913" r="1"/><circle cx="1153" cy="913" r="1"/><circle cx="1009" cy="937" r="1"/><circle cx="1009" cy="985" r="1"/><circle cx="1009" cy="1009" r="1"/><circle cx="1033" cy="961" r="1"/><circle cx="1033" cy="1009" r="1"/><circle cx="1105" cy="1009" r="1"/><circle cx="1177" cy="913" r="1"/><circle cx="1201" cy="889" r="1"/><circle cx="1249" cy="865" r="1"/><circle cx="1297" cy="913" r="1"/><circle cx="1321" cy="865" r="1"/><circle cx="1345" cy="889" r="1"/><circle cx="1177" cy="961" r="1"/><circle cx="1177" cy="985" r="1"/><circle cx="1225" cy="985" r="1"/><circle cx="1249" cy="1009" r="1"/><circle cx="1273" cy="937" r="1"/><circle cx="1273" cy="961" r="1"/><circle cx="1345" cy="937" r="1"/><circle cx="1345" cy="1009" r="1"/><circle cx="1369" cy="865" r="1"/><circle cx="1369" cy="889" r="1"/><circle cx="1369" cy="913" r="1"/><circle cx="1441" cy="913" r="1"/><circle cx="1465" cy="865" r="1"/><circle cx="1465" cy="913" r="1"/><circle cx="1489" cy="865" r="1"/><circle cx="1513" cy="865" r="1"/><circle cx="1513" cy="913" r="1"/><circle cx="1537" cy="865" r="1"/><circle cx="1537" cy="913" r="1"/><circle cx="1369" cy="961" r="1"/><circle cx="1369" cy="1009" r="1"/><circle cx="1393" cy="937" r="1"/><circle cx="1465" cy="985" r="1"/><circle cx="1465" cy="1009" r="1"/><circle cx="1513" cy="985" r="1"/><circle cx="1537" cy="1009" r="1"/><circle cx="1561" cy="889" r="1"/><circle cx="1585" cy="913" r="1"/><circle cx="1609" cy="865" r="1"/><circle cx="1609" cy="889" r="1"/><circle cx="1633" cy="865" r="1"/><circle cx="1705" cy="889" r="1"/><circle cx="1705" cy="913" r="1"/><circle cx="1729" cy="865" r="1"/><circle cx="1561" cy="937" r="1"/><circle cx="1561" cy="1009" r="1"/><circle cx="1585" cy="937" r="1"/><circle cx="1585" cy="985" r="1"/><circle cx="1585" cy="1009" r="1"/><circle cx="1633" cy="937" r="1"/><circle cx="1657" cy="961" r="1"/><circle cx="1681" cy="961" r="1"/><circle cx="1681" cy="985" r="1"/><circle cx="1729" cy="937" r="1"/><circle cx="1801" cy="865" r="1"/><circle cx="1825" cy="889" r="1"/><circle cx="1849" cy="865" r="1"/><circle cx="1" cy="985" r="1"/><circle cx="1801" cy="961" r="1"/><circle cx="1825" cy="985" r="1"/><circle cx="1849" cy="937" r="1"/><circle cx="1849" cy="961" r="1"/><circle cx="1873" cy="985" r="1"/><circle cx="97" cy="1033" r="1"/><circle cx="169" cy="1033" r="1"/><circle cx="241" cy="1033" r="1"/><circle cx="481" cy="1033" r="1"/><circle cx="505" cy="1033" r="1"/><circle cx="529" cy="1033" r="1"/><circle cx="577" cy="1033" r="1"/><circle cx="817" cy="1033" r="1"/><circle cx="865" cy="1033" r="1"/><circle cx="913" cy="1033" r="1"/><circle cx="985" cy="1033" r="1"/><circle cx="1129" cy="1033" r="1"/><circle cx="1225" cy="1033" r="1"/><circle cx="1369" cy="1033" r="1"/><circle cx="1393" cy="1033" r="1"/><circle cx="1417" cy="1033" r="1"/><circle cx="1441" cy="1033" r="1"/><circle cx="1705" cy="1033" r="1"/><circle cx="1777" cy="1033" r="1"/><circle cx="1825" cy="1033" r="1"/><circle cx="241" cy="1057" r="1"/><circle cx="337" cy="1057" r="1"/><circle cx="361" cy="1057" r="1"/><circle cx="961" cy="1057" r="1"/><circle cx="985" cy="1057" r="1"/><circle cx="1081" cy="1057" r="1"/><circle cx="1465" cy="1057" r="1"/><circle cx="1681" cy="1057" r="1"/><circle cx="1753" cy="1057" r="1"/><circle cx="1897" cy="73" r="1"/><circle cx="1897" cy="433" r="1"/><circle cx="1897" cy="481" r="1"/><circle cx="1897" cy="601" r="1"/><circle cx="1897" cy="841" r="1"/><circle cx="1897" cy="937" r="1"/><circle cx="1897" cy="961" r="1"/><circle cx="1897" cy="1009" r="1"/><circle cx="1897" cy="1057" r="1"/></g></svg>