<svg xmlns="http://www.w3.org/2000/svg" xml:space="preserve" viewBox="0 0 1920 1080"><g fill="#E4E4E4"><circle cx="49" cy="97" r="1"/><circle cx="73" cy="25" r="1"/><circle cx="97" cy="97" r="1"/><circle cx="121" cy="49" r="1"/><circle cx="121" cy="73" r="1"/><circle cx="145" cy="25" r="1"/><circle cx="145" cy="73" r="1"/><circle cx="169" cy="97" r="1"/><circle cx="193" cy="25" r="1"/><circle cx="193" cy="49" r="1"/><circle cx="25" cy="145" r="1"/><circle cx="25" cy="169" r="1"/><circle cx="49" cy="121" r="1"/><circle cx="73" cy="121" r="1"/><circle cx="97" cy="169" r="1"/><circle cx="121" cy="145" r="1"/><circle cx="121" cy="193" r="1"/><circle cx="145" cy="145" r="1"/><circle cx="169" cy="169" r="1"/><circle cx="169" cy="193" r="1"/><circle cx="193" cy="145" r="1"/><circle cx="217" cy="49" r="1"/><circle cx="217" cy="73" r="1"/><circle cx="241" cy="73" r="1"/><circle cx="241" cy="97" r="1"/><circle cx="265" cy="49" r="1"/><circle cx="289" cy="49" r="1"/><circle cx="313" cy="49" r="1"/><circle cx="313" cy="73" r="1"/><circle cx="385" cy="97" r="1"/><circle cx="217" cy="169" r="1"/><circle cx="241" cy="169" r="1"/><circle cx="265" cy="145" r="1"/><circle cx="289" cy="145" r="1"/><circle cx="313" cy="145" r="1"/><circle cx="385" cy="121" r="1"/><circle cx="385" cy="193" r="1"/><circle cx="409" cy="25" r="1"/><circle cx="409" cy="73" r="1"/><circle cx="457" cy="25" r="1"/><circle cx="505" cy="73" r="1"/><circle cx="505" cy="97" r="1"/><circle cx="529" cy="49" r="1"/><circle cx="577" cy="25" r="1"/><circle cx="409" cy="145" r="1"/><circle cx="409" cy="169" r="1"/><circle cx="409" cy="193" r="1"/><circle cx="433" cy="145" r="1"/><circle cx="433" cy="193" r="1"/><circle cx="457" cy="193" r="1"/><circle cx="505" cy="169" r="1"/><circle cx="505" cy="193" r="1"/><circle cx="529" cy="121" r="1"/><circle cx="529" cy="145" r="1"/><circle cx="601" cy="49" r="1"/><circle cx="601" cy="97" r="1"/><circle cx="625" cy="49" r="1"/><circle cx="673" cy="25" r="1"/><circle cx="673" cy="49" r="1"/><circle cx="673" cy="97" r="1"/><circle cx="697" cy="73" r="1"/><circle cx="697" cy="97" r="1"/><circle cx="721" cy="49" r="1"/><circle cx="721" cy="97" r="1"/><circle cx="745" cy="49" r="1"/><circle cx="601" cy="169" r="1"/><circle cx="625" cy="145" r="1"/><circle cx="649" cy="145" r="1"/><circle cx="649" cy="169" r="1"/><circle cx="673" cy="121" r="1"/><circle cx="697" cy="145" r="1"/><circle cx="697" cy="193" r="1"/><circle cx="721" cy="193" r="1"/><circle cx="745" cy="169" r="1"/><circle cx="769" cy="145" r="1"/><circle cx="769" cy="169" r="1"/><circle cx="793" cy="97" r="1"/><circle cx="817" cy="73" r="1"/><circle cx="817" cy="97" r="1"/><circle cx="865" cy="73" r="1"/><circle cx="913" cy="49" r="1"/><circle cx="937" cy="49" r="1"/><circle cx="937" cy="73" r="1"/><circle cx="793" cy="145" r="1"/><circle cx="817" cy="121" r="1"/><circle cx="817" cy="145" r="1"/><circle cx="841" cy="121" r="1"/><circle cx="865" cy="121" r="1"/><circle cx="889" cy="145" r="1"/><circle cx="913" cy="121" r="1"/><circle cx="1009" cy="25" r="1"/><circle cx="1009" cy="73" r="1"/><circle cx="1057" cy="49" r="1"/><circle cx="1057" cy="97" r="1"/><circle cx="1081" cy="49" r="1"/><circle cx="1081" cy="73" r="1"/><circle cx="1081" cy="97" r="1"/><circle cx="1105" cy="73" r="1"/><circle cx="1129" cy="25" r="1"/><circle cx="1129" cy="73" r="1"/><circle cx="1153" cy="49" r="1"/><circle cx="1153" cy="73" r="1"/><circle cx="985" cy="169" r="1"/><circle cx="1009" cy="145" r="1"/><circle cx="1129" cy="121" r="1"/><circle cx="1177" cy="25" r="1"/><circle cx="1201" cy="25" r="1"/><circle cx="1225" cy="97" r="1"/><circle cx="1249" cy="49" r="1"/><circle cx="1273" cy="25" r="1"/><circle cx="1273" cy="73" r="1"/><circle cx="1273" cy="97" r="1"/><circle cx="1297" cy="25" r="1"/><circle cx="1297" cy="49" r="1"/><circle cx="1297" cy="73" r="1"/><circle cx="1321" cy="25" r="1"/><circle cx="1321" cy="97" r="1"/><circle cx="1345" cy="25" r="1"/><circle cx="1177" cy="145" r="1"/><circle cx="1177" cy="193" r="1"/><circle cx="1225" cy="169" r="1"/><circle cx="1225" cy="193" r="1"/><circle cx="1249" cy="193" r="1"/><circle cx="1273" cy="121" r="1"/><circle cx="1273" cy="145" r="1"/><circle cx="1297" cy="145" r="1"/><circle cx="1297" cy="169" r="1"/><circle cx="1321" cy="121" r="1"/><circle cx="1321" cy="145" r="1"/><circle cx="1321" cy="193" r="1"/><circle cx="1369" cy="25" r="1"/><circle cx="1369" cy="97" r="1"/><circle cx="1393" cy="97" r="1"/><circle cx="1441" cy="25" r="1"/><circle cx="1441" cy="73" r="1"/><circle cx="1441" cy="97" r="1"/><circle cx="1465" cy="25" r="1"/><circle cx="1465" cy="73" r="1"/><circle cx="1537" cy="49" r="1"/><circle cx="1369" cy="193" r="1"/><circle cx="1393" cy="145" r="1"/><circle cx="1393" cy="169" r="1"/><circle cx="1417" cy="145" r="1"/><circle cx="1417" cy="169" r="1"/><circle cx="1441" cy="169" r="1"/><circle cx="1465" cy="121" r="1"/><circle cx="1465" cy="169" r="1"/><circle cx="1489" cy="121" r="1"/><circle cx="1489" cy="145" r="1"/><circle cx="1513" cy="121" r="1"/><circle cx="1537" cy="145" r="1"/><circle cx="1561" cy="73" r="1"/><circle cx="1585" cy="25" r="1"/><circle cx="1633" cy="73" r="1"/><circle cx="1633" cy="97" r="1"/><circle cx="1657" cy="97" r="1"/><circle cx="1681" cy="97" r="1"/><circle cx="1729" cy="73" r="1"/><circle cx="1729" cy="97" r="1"/><circle cx="1585" cy="145" r="1"/><circle cx="1609" cy="169" r="1"/><circle cx="1609" cy="193" r="1"/><circle cx="1633" cy="121" r="1"/><circle cx="1633" cy="169" r="1"/><circle cx="1681" cy="193" r="1"/><circle cx="1705" cy="145" r="1"/><circle cx="1729" cy="121" r="1"/><circle cx="1729" cy="169" r="1"/><circle cx="1753" cy="25" r="1"/><circle cx="1753" cy="73" r="1"/><circle cx="1777" cy="73" r="1"/><circle cx="1" cy="49" r="1"/><circle cx="1" cy="97" r="1"/><circle cx="1" cy="145" r="1"/><circle cx="1" cy="1" r="1"/><circle cx="73" cy="1" r="1"/><circle cx="337" cy="1" r="1"/><circle cx="409" cy="1" r="1"/><circle cx="481" cy="1" r="1"/><circle cx="649" cy="1" r="1"/><circle cx="721" cy="1" r="1"/><circle cx="865" cy="1" r="1"/><circle cx="889" cy="1" r="1"/><circle cx="1057" cy="1" r="1"/><circle cx="1081" cy="1" r="1"/><circle cx="1129" cy="1" r="1"/><circle cx="1201" cy="1" r="1"/><circle cx="1225" cy="1" r="1"/><circle cx="1297" cy="1" r="1"/><circle cx="1345" cy="1" r="1"/><circle cx="1417" cy="1" r="1"/><circle cx="1465" cy="1" r="1"/><circle cx="1489" cy="1" r="1"/><circle cx="1537" cy="1" r="1"/><circle cx="1585" cy="1" r="1"/><circle cx="1705" cy="1" r="1"/><circle cx="1801" cy="1" r="1"/><circle cx="1873" cy="73" r="1"/><circle cx="1777" cy="169" r="1"/><circle cx="1801" cy="145" r="1"/><circle cx="1801" cy="169" r="1"/><circle cx="1873" cy="145" r="1"/><circle cx="25" cy="241" r="1"/><circle cx="25" cy="265" r="1"/><circle cx="25" cy="289" r="1"/><circle cx="73" cy="265" r="1"/><circle cx="97" cy="241" r="1"/><circle cx="145" cy="265" r="1"/><circle cx="169" cy="289" r="1"/><circle cx="193" cy="289" r="1"/><circle cx="73" cy="361" r="1"/><circle cx="169" cy="337" r="1"/><circle cx="193" cy="409" r="1"/><circle cx="217" cy="241" r="1"/><circle cx="241" cy="241" r="1"/><circle cx="241" cy="265" r="1"/><circle cx="241" cy="289" r="1"/><circle cx="265" cy="241" r="1"/><circle cx="265" cy="265" r="1"/><circle cx="313" cy="313" r="1"/><circle cx="385" cy="265" r="1"/><circle cx="217" cy="361" r="1"/><circle cx="241" cy="361" r="1"/><circle cx="265" cy="337" r="1"/><circle cx="265" cy="361" r="1"/><circle cx="337" cy="385" r="1"/><circle cx="361" cy="361" r="1"/><circle cx="409" cy="241" r="1"/><circle cx="409" cy="313" r="1"/><circle cx="433" cy="265" r="1"/><circle cx="457" cy="289" r="1"/><circle cx="481" cy="241" r="1"/><circle cx="481" cy="265" r="1"/><circle cx="481" cy="313" r="1"/><circle cx="529" cy="265" r="1"/><circle cx="577" cy="313" r="1"/><circle cx="409" cy="409" r="1"/><circle cx="433" cy="385" r="1"/><circle cx="457" cy="361" r="1"/><circle cx="481" cy="409" r="1"/><circle cx="505" cy="385" r="1"/><circle cx="529" cy="337" r="1"/><circle cx="553" cy="337" r="1"/><circle cx="553" cy="361" r="1"/><circle cx="577" cy="337" r="1"/><circle cx="601" cy="289" r="1"/><circle cx="625" cy="289" r="1"/><circle cx="721" cy="289" r="1"/><circle cx="745" cy="289" r="1"/><circle cx="745" cy="313" r="1"/><circle cx="625" cy="361" r="1"/><circle cx="697" cy="385" r="1"/><circle cx="721" cy="385" r="1"/><circle cx="745" cy="337" r="1"/><circle cx="745" cy="385" r="1"/><circle cx="745" cy="409" r="1"/><circle cx="769" cy="409" r="1"/><circle cx="817" cy="289" r="1"/><circle cx="841" cy="265" r="1"/><circle cx="865" cy="241" r="1"/><circle cx="865" cy="313" r="1"/><circle cx="817" cy="337" r="1"/><circle cx="841" cy="361" r="1"/><circle cx="841" cy="409" r="1"/><circle cx="889" cy="337" r="1"/><circle cx="889" cy="361" r="1"/><circle cx="913" cy="337" r="1"/><circle cx="913" cy="385" r="1"/><circle cx="913" cy="409" r="1"/><circle cx="937" cy="337" r="1"/><circle cx="937" cy="385" r="1"/><circle cx="1009" cy="289" r="1"/><circle cx="1033" cy="313" r="1"/><circle cx="1057" cy="289" r="1"/><circle cx="1081" cy="265" r="1"/><circle cx="1105" cy="265" r="1"/><circle cx="1129" cy="265" r="1"/><circle cx="1009" cy="361" r="1"/><circle cx="1033" cy="337" r="1"/><circle cx="1033" cy="361" r="1"/><circle cx="1057" cy="361" r="1"/><circle cx="1081" cy="337" r="1"/><circle cx="1081" cy="409" r="1"/><circle cx="1153" cy="385" r="1"/><circle cx="1177" cy="241" r="1"/><circle cx="1177" cy="289" r="1"/><circle cx="1177" cy="313" r="1"/><circle cx="1201" cy="289" r="1"/><circle cx="1201" cy="313" r="1"/><circle cx="1225" cy="241" r="1"/><circle cx="1225" cy="265" r="1"/><circle cx="1321" cy="241" r="1"/><circle cx="1345" cy="241" r="1"/><circle cx="1345" cy="265" r="1"/><circle cx="1201" cy="409" r="1"/><circle cx="1225" cy="337" r="1"/><circle cx="1225" cy="361" r="1"/><circle cx="1249" cy="409" r="1"/><circle cx="1273" cy="337" r="1"/><circle cx="1273" cy="409" r="1"/><circle cx="1297" cy="361" r="1"/><circle cx="1321" cy="337" r="1"/><circle cx="1345" cy="385" r="1"/><circle cx="1369" cy="241" r="1"/><circle cx="1417" cy="241" r="1"/><circle cx="1417" cy="265" r="1"/><circle cx="1417" cy="289" r="1"/><circle cx="1441" cy="265" r="1"/><circle cx="1465" cy="241" r="1"/><circle cx="1465" cy="265" r="1"/><circle cx="1465" cy="289" r="1"/><circle cx="1489" cy="289" r="1"/><circle cx="1513" cy="289" r="1"/><circle cx="1489" cy="361" r="1"/><circle cx="1513" cy="361" r="1"/><circle cx="1537" cy="337" r="1"/><circle cx="1537" cy="385" r="1"/><circle cx="1561" cy="265" r="1"/><circle cx="1585" cy="289" r="1"/><circle cx="1633" cy="241" r="1"/><circle cx="1657" cy="265" r="1"/><circle cx="1681" cy="265" r="1"/><circle cx="1681" cy="313" r="1"/><circle cx="1705" cy="241" r="1"/><circle cx="1705" cy="313" r="1"/><circle cx="1729" cy="241" r="1"/><circle cx="1729" cy="289" r="1"/><circle cx="1729" cy="313" r="1"/><circle cx="1561" cy="409" r="1"/><circle cx="1585" cy="337" r="1"/><circle cx="1585" cy="385" r="1"/><circle cx="1657" cy="385" r="1"/><circle cx="1729" cy="361" r="1"/><circle cx="1729" cy="409" r="1"/><circle cx="1753" cy="241" r="1"/><circle cx="1777" cy="241" r="1"/><circle cx="1849" cy="265" r="1"/><circle cx="1" cy="241" r="1"/><circle cx="1" cy="361" r="1"/><circle cx="97" cy="217" r="1"/><circle cx="169" cy="217" r="1"/><circle cx="193" cy="217" r="1"/><circle cx="337" cy="217" r="1"/><circle cx="433" cy="217" r="1"/><circle cx="457" cy="217" r="1"/><circle cx="673" cy="217" r="1"/><circle cx="769" cy="217" r="1"/><circle cx="865" cy="217" r="1"/><circle cx="961" cy="217" r="1"/><circle cx="1153" cy="217" r="1"/><circle cx="1321" cy="217" r="1"/><circle cx="1561" cy="217" r="1"/><circle cx="1609" cy="217" r="1"/><circle cx="1753" cy="217" r="1"/><circle cx="1825" cy="217" r="1"/><circle cx="1873" cy="217" r="1"/><circle cx="1873" cy="289" r="1"/><circle cx="1753" cy="337" r="1"/><circle cx="1753" cy="385" r="1"/><circle cx="1777" cy="361" r="1"/><circle cx="1777" cy="409" r="1"/><circle cx="1801" cy="337" r="1"/><circle cx="1825" cy="361" r="1"/><circle cx="1825" cy="409" r="1"/><circle cx="49" cy="529" r="1"/><circle cx="73" cy="481" r="1"/><circle cx="73" cy="505" r="1"/><circle cx="97" cy="481" r="1"/><circle cx="121" cy="457" r="1"/><circle cx="121" cy="481" r="1"/><circle cx="121" cy="529" r="1"/><circle cx="145" cy="457" r="1"/><circle cx="169" cy="457" r="1"/><circle cx="169" cy="481" r="1"/><circle cx="169" cy="529" r="1"/><circle cx="193" cy="529" r="1"/><circle cx="49" cy="553" r="1"/><circle cx="49" cy="601" r="1"/><circle cx="73" cy="601" r="1"/><circle cx="121" cy="577" r="1"/><circle cx="145" cy="601" r="1"/><circle cx="169" cy="553" r="1"/><circle cx="169" cy="577" r="1"/><circle cx="169" cy="625" r="1"/><circle cx="193" cy="577" r="1"/><circle cx="193" cy="625" r="1"/><circle cx="217" cy="529" r="1"/><circle cx="241" cy="481" r="1"/><circle cx="265" cy="457" r="1"/><circle cx="265" cy="481" r="1"/><circle cx="289" cy="457" r="1"/><circle cx="289" cy="481" r="1"/><circle cx="313" cy="481" r="1"/><circle cx="313" cy="529" r="1"/><circle cx="337" cy="457" r="1"/><circle cx="217" cy="577" r="1"/><circle cx="241" cy="601" r="1"/><circle cx="241" cy="625" r="1"/><circle cx="289" cy="553" r="1"/><circle cx="289" cy="577" r="1"/><circle cx="289" cy="601" r="1"/><circle cx="289" cy="625" r="1"/><circle cx="313" cy="577" r="1"/><circle cx="409" cy="457" r="1"/><circle cx="409" cy="505" r="1"/><circle cx="433" cy="481" r="1"/><circle cx="481" cy="481" r="1"/><circle cx="505" cy="457" r="1"/><circle cx="505" cy="529" r="1"/><circle cx="529" cy="505" r="1"/><circle cx="553" cy="505" r="1"/><circle cx="553" cy="529" r="1"/><circle cx="505" cy="625" r="1"/><circle cx="529" cy="625" r="1"/><circle cx="577" cy="553" r="1"/><circle cx="601" cy="457" r="1"/><circle cx="601" cy="481" r="1"/><circle cx="601" cy="505" r="1"/><circle cx="625" cy="481" r="1"/><circle cx="673" cy="457" r="1"/><circle cx="697" cy="481" r="1"/><circle cx="697" cy="505" r="1"/><circle cx="721" cy="457" r="1"/><circle cx="745" cy="505" r="1"/><circle cx="769" cy="505" r="1"/><circle cx="721" cy="577" r="1"/><circle cx="721" cy="625" r="1"/><circle cx="769" cy="577" r="1"/><circle cx="769" cy="601" r="1"/><circle cx="769" cy="625" r="1"/><circle cx="793" cy="481" r="1"/><circle cx="793" cy="529" r="1"/><circle cx="841" cy="457" r="1"/><circle cx="841" cy="505" r="1"/><circle cx="865" cy="529" r="1"/><circle cx="889" cy="529" r="1"/><circle cx="913" cy="529" r="1"/><circle cx="937" cy="505" r="1"/><circle cx="961" cy="481" r="1"/><circle cx="841" cy="577" r="1"/><circle cx="889" cy="601" r="1"/><circle cx="913" cy="625" r="1"/><circle cx="937" cy="625" r="1"/><circle cx="985" cy="457" r="1"/><circle cx="985" cy="505" r="1"/><circle cx="1009" cy="505" r="1"/><circle cx="1033" cy="529" r="1"/><circle cx="1081" cy="481" r="1"/><circle cx="1129" cy="457" r="1"/><circle cx="1129" cy="481" r="1"/><circle cx="1153" cy="529" r="1"/><circle cx="985" cy="625" r="1"/><circle cx="1009" cy="625" r="1"/><circle cx="1033" cy="577" r="1"/><circle cx="1033" cy="601" r="1"/><circle cx="1057" cy="553" r="1"/><circle cx="1105" cy="553" r="1"/><circle cx="1153" cy="553" r="1"/><circle cx="1153" cy="625" r="1"/><circle cx="1225" cy="505" r="1"/><circle cx="1273" cy="481" r="1"/><circle cx="1297" cy="457" r="1"/><circle cx="1297" cy="505" r="1"/><circle cx="1321" cy="481" r="1"/><circle cx="1345" cy="529" r="1"/><circle cx="1201" cy="625" r="1"/><circle cx="1273" cy="577" r="1"/><circle cx="1297" cy="577" r="1"/><circle cx="1297" cy="625" r="1"/><circle cx="1321" cy="553" r="1"/><circle cx="1345" cy="601" r="1"/><circle cx="1345" cy="625" r="1"/><circle cx="1369" cy="529" r="1"/><circle cx="1393" cy="481" r="1"/><circle cx="1393" cy="529" r="1"/><circle cx="1417" cy="457" r="1"/><circle cx="1417" cy="481" r="1"/><circle cx="1441" cy="529" r="1"/><circle cx="1465" cy="481" r="1"/><circle cx="1489" cy="505" r="1"/><circle cx="1513" cy="481" r="1"/><circle cx="1513" cy="505" r="1"/><circle cx="1537" cy="457" r="1"/><circle cx="1537" cy="481" r="1"/><circle cx="1537" cy="505" r="1"/><circle cx="1537" cy="529" r="1"/><circle cx="1369" cy="577" r="1"/><circle cx="1369" cy="625" r="1"/><circle cx="1417" cy="577" r="1"/><circle cx="1417" cy="601" r="1"/><circle cx="1417" cy="625" r="1"/><circle cx="1441" cy="553" r="1"/><circle cx="1441" cy="577" r="1"/><circle cx="1441" cy="601" r="1"/><circle cx="1513" cy="553" r="1"/><circle cx="1513" cy="601" r="1"/><circle cx="1537" cy="553" r="1"/><circle cx="1537" cy="577" r="1"/><circle cx="1537" cy="601" r="1"/><circle cx="1561" cy="457" r="1"/><circle cx="1585" cy="457" r="1"/><circle cx="1609" cy="505" r="1"/><circle cx="1657" cy="457" r="1"/><circle cx="1657" cy="529" r="1"/><circle cx="1681" cy="457" r="1"/><circle cx="1705" cy="457" r="1"/><circle cx="1705" cy="481" r="1"/><circle cx="1729" cy="505" r="1"/><circle cx="1729" cy="529" r="1"/><circle cx="1561" cy="625" r="1"/><circle cx="1585" cy="625" r="1"/><circle cx="1633" cy="577" r="1"/><circle cx="1657" cy="553" r="1"/><circle cx="1657" cy="601" r="1"/><circle cx="1681" cy="577" r="1"/><circle cx="1681" cy="625" r="1"/><circle cx="1729" cy="553" r="1"/><circle cx="1729" cy="577" r="1"/><circle cx="1729" cy="601" r="1"/><circle cx="1753" cy="529" r="1"/><circle cx="1777" cy="505" r="1"/><circle cx="1825" cy="481" r="1"/><circle cx="1849" cy="505" r="1"/><circle cx="1" cy="457" r="1"/><circle cx="1" cy="433" r="1"/><circle cx="73" cy="433" r="1"/><circle cx="241" cy="433" r="1"/><circle cx="265" cy="433" r="1"/><circle cx="313" cy="433" r="1"/><circle cx="337" cy="433" r="1"/><circle cx="361" cy="433" r="1"/><circle cx="409" cy="433" r="1"/><circle cx="433" cy="433" r="1"/><circle cx="601" cy="433" r="1"/><circle cx="889" cy="433" r="1"/><circle cx="961" cy="433" r="1"/><circle cx="1153" cy="433" r="1"/><circle cx="1201" cy="433" r="1"/><circle cx="1273" cy="433" r="1"/><circle cx="1345" cy="433" r="1"/><circle cx="1561" cy="433" r="1"/><circle cx="1609" cy="433" r="1"/><circle cx="1657" cy="433" r="1"/><circle cx="1681" cy="433" r="1"/><circle cx="1705" cy="433" r="1"/><circle cx="1801" cy="433" r="1"/><circle cx="1825" cy="433" r="1"/><circle cx="1873" cy="529" r="1"/><circle cx="1801" cy="553" r="1"/><circle cx="1825" cy="553" r="1"/><circle cx="1849" cy="601" r="1"/><circle cx="49" cy="673" r="1"/><circle cx="49" cy="721" r="1"/><circle cx="97" cy="721" r="1"/><circle cx="145" cy="673" r="1"/><circle cx="169" cy="673" r="1"/><circle cx="169" cy="697" r="1"/><circle cx="193" cy="745" r="1"/><circle cx="25" cy="769" r="1"/><circle cx="73" cy="817" r="1"/><circle cx="97" cy="793" r="1"/><circle cx="121" cy="769" r="1"/><circle cx="121" cy="817" r="1"/><circle cx="121" cy="841" r="1"/><circle cx="145" cy="793" r="1"/><circle cx="145" cy="841" r="1"/><circle cx="169" cy="769" r="1"/><circle cx="169" cy="793" r="1"/><circle cx="169" cy="841" r="1"/><circle cx="217" cy="697" r="1"/><circle cx="217" cy="745" r="1"/><circle cx="241" cy="721" r="1"/><circle cx="241" cy="745" r="1"/><circle cx="265" cy="721" r="1"/><circle cx="289" cy="697" r="1"/><circle cx="289" cy="721" r="1"/><circle cx="361" cy="721" r="1"/><circle cx="217" cy="793" r="1"/><circle cx="217" cy="841" r="1"/><circle cx="265" cy="793" r="1"/><circle cx="313" cy="841" r="1"/><circle cx="337" cy="769" r="1"/><circle cx="361" cy="793" r="1"/><circle cx="385" cy="817" r="1"/><circle cx="409" cy="697" r="1"/><circle cx="433" cy="697" r="1"/><circle cx="457" cy="721" r="1"/><circle cx="481" cy="673" r="1"/><circle cx="529" cy="673" r="1"/><circle cx="577" cy="673" r="1"/><circle cx="409" cy="769" r="1"/><circle cx="409" cy="841" r="1"/><circle cx="457" cy="793" r="1"/><circle cx="505" cy="817" r="1"/><circle cx="505" cy="841" r="1"/><circle cx="529" cy="817" r="1"/><circle cx="529" cy="841" r="1"/><circle cx="553" cy="793" r="1"/><circle cx="553" cy="841" r="1"/><circle cx="577" cy="841" r="1"/><circle cx="625" cy="673" r="1"/><circle cx="673" cy="721" r="1"/><circle cx="721" cy="673" r="1"/><circle cx="745" cy="745" r="1"/><circle cx="601" cy="817" r="1"/><circle cx="601" cy="841" r="1"/><circle cx="649" cy="817" r="1"/><circle cx="673" cy="841" r="1"/><circle cx="697" cy="769" r="1"/><circle cx="697" cy="841" r="1"/><circle cx="721" cy="769" r="1"/><circle cx="721" cy="817" r="1"/><circle cx="793" cy="697" r="1"/><circle cx="793" cy="721" r="1"/><circle cx="817" cy="697" r="1"/><circle cx="913" cy="673" r="1"/><circle cx="913" cy="721" r="1"/><circle cx="793" cy="769" r="1"/><circle cx="793" cy="817" r="1"/><circle cx="817" cy="793" r="1"/><circle cx="889" cy="769" r="1"/><circle cx="889" cy="817" r="1"/><circle cx="913" cy="817" r="1"/><circle cx="961" cy="769" r="1"/><circle cx="961" cy="793" r="1"/><circle cx="961" cy="817" r="1"/><circle cx="985" cy="745" r="1"/><circle cx="1009" cy="697" r="1"/><circle cx="1057" cy="673" r="1"/><circle cx="1081" cy="673" r="1"/><circle cx="1081" cy="697" r="1"/><circle cx="1153" cy="697" r="1"/><circle cx="1153" cy="721" r="1"/><circle cx="1153" cy="745" r="1"/><circle cx="985" cy="793" r="1"/><circle cx="1009" cy="817" r="1"/><circle cx="1057" cy="793" r="1"/><circle cx="1081" cy="841" r="1"/><circle cx="1129" cy="841" r="1"/><circle cx="1153" cy="769" r="1"/><circle cx="1177" cy="673" r="1"/><circle cx="1177" cy="721" r="1"/><circle cx="1225" cy="697" r="1"/><circle cx="1249" cy="697" r="1"/><circle cx="1273" cy="673" r="1"/><circle cx="1273" cy="721" r="1"/><circle cx="1345" cy="697" r="1"/><circle cx="1177" cy="841" r="1"/><circle cx="1249" cy="817" r="1"/><circle cx="1297" cy="817" r="1"/><circle cx="1321" cy="793" r="1"/><circle cx="1369" cy="697" r="1"/><circle cx="1393" cy="745" r="1"/><circle cx="1417" cy="673" r="1"/><circle cx="1441" cy="673" r="1"/><circle cx="1441" cy="745" r="1"/><circle cx="1489" cy="697" r="1"/><circle cx="1393" cy="769" r="1"/><circle cx="1393" cy="841" r="1"/><circle cx="1417" cy="769" r="1"/><circle cx="1417" cy="841" r="1"/><circle cx="1441" cy="769" r="1"/><circle cx="1441" cy="817" r="1"/><circle cx="1465" cy="841" r="1"/><circle cx="1513" cy="841" r="1"/><circle cx="1537" cy="793" r="1"/><circle cx="1537" cy="817" r="1"/><circle cx="1537" cy="841" r="1"/><circle cx="1561" cy="745" r="1"/><circle cx="1585" cy="721" r="1"/><circle cx="1657" cy="673" r="1"/><circle cx="1657" cy="697" r="1"/><circle cx="1657" cy="721" r="1"/><circle cx="1705" cy="673" r="1"/><circle cx="1705" cy="697" r="1"/><circle cx="1561" cy="769" r="1"/><circle cx="1561" cy="793" r="1"/><circle cx="1561" cy="817" r="1"/><circle cx="1609" cy="769" r="1"/><circle cx="1609" cy="841" r="1"/><circle cx="1681" cy="769" r="1"/><circle cx="1705" cy="769" r="1"/><circle cx="1705" cy="793" r="1"/><circle cx="1705" cy="841" r="1"/><circle cx="1729" cy="769" r="1"/><circle cx="1801" cy="697" r="1"/><circle cx="1873" cy="673" r="1"/><circle cx="1" cy="673" r="1"/><circle cx="1" cy="745" r="1"/><circle cx="1" cy="769" r="1"/><circle cx="145" cy="649" r="1"/><circle cx="169" cy="649" r="1"/><circle cx="217" cy="649" r="1"/><circle cx="241" cy="649" r="1"/><circle cx="289" cy="649" r="1"/><circle cx="577" cy="649" r="1"/><circle cx="601" cy="649" r="1"/><circle cx="793" cy="649" r="1"/><circle cx="817" cy="649" r="1"/><circle cx="1489" cy="649" r="1"/><circle cx="1537" cy="649" r="1"/><circle cx="1561" cy="649" r="1"/><circle cx="1609" cy="649" r="1"/><circle cx="1657" cy="649" r="1"/><circle cx="1705" cy="649" r="1"/><circle cx="1729" cy="649" r="1"/><circle cx="1777" cy="649" r="1"/><circle cx="1825" cy="649" r="1"/><circle cx="1849" cy="649" r="1"/><circle cx="1873" cy="721" r="1"/><circle cx="1753" cy="769" r="1"/><circle cx="1753" cy="793" r="1"/><circle cx="1753" cy="817" r="1"/><circle cx="1849" cy="769" r="1"/><circle cx="1849" cy="817" r="1"/><circle cx="25" cy="865" r="1"/><circle cx="25" cy="913" r="1"/><circle cx="73" cy="913" r="1"/><circle cx="97" cy="889" r="1"/><circle cx="169" cy="889" r="1"/><circle cx="169" cy="913" r="1"/><circle cx="49" cy="937" r="1"/><circle cx="49" cy="961" r="1"/><circle cx="49" cy="1009" r="1"/><circle cx="73" cy="1009" r="1"/><circle cx="97" cy="937" r="1"/><circle cx="193" cy="961" r="1"/><circle cx="265" cy="913" r="1"/><circle cx="289" cy="889" r="1"/><circle cx="289" cy="913" r="1"/><circle cx="313" cy="865" r="1"/><circle cx="313" cy="889" r="1"/><circle cx="337" cy="913" r="1"/><circle cx="361" cy="865" r="1"/><circle cx="361" cy="889" r="1"/><circle cx="385" cy="889" r="1"/><circle cx="217" cy="961" r="1"/><circle cx="217" cy="985" r="1"/><circle cx="217" cy="1009" r="1"/><circle cx="241" cy="985" r="1"/><circle cx="265" cy="1009" r="1"/><circle cx="313" cy="937" r="1"/><circle cx="313" cy="1009" r="1"/><circle cx="361" cy="937" r="1"/><circle cx="385" cy="961" r="1"/><circle cx="433" cy="913" r="1"/><circle cx="457" cy="889" r="1"/><circle cx="505" cy="889" r="1"/><circle cx="505" cy="913" r="1"/><circle cx="529" cy="889" r="1"/><circle cx="529" cy="913" r="1"/><circle cx="553" cy="865" r="1"/><circle cx="553" cy="889" r="1"/><circle cx="433" cy="937" r="1"/><circle cx="433" cy="1009" r="1"/><circle cx="481" cy="961" r="1"/><circle cx="481" cy="985" r="1"/><circle cx="481" cy="1009" r="1"/><circle cx="529" cy="985" r="1"/><circle cx="553" cy="961" r="1"/><circle cx="553" cy="985" r="1"/><circle cx="577" cy="937" r="1"/><circle cx="577" cy="985" r="1"/><circle cx="577" cy="1009" r="1"/><circle cx="625" cy="913" r="1"/><circle cx="649" cy="889" r="1"/><circle cx="673" cy="865" r="1"/><circle cx="721" cy="889" r="1"/><circle cx="721" cy="913" r="1"/><circle cx="769" cy="865" r="1"/><circle cx="601" cy="1009" r="1"/><circle cx="649" cy="985" r="1"/><circle cx="673" cy="961" r="1"/><circle cx="697" cy="961" r="1"/><circle cx="697" cy="985" r="1"/><circle cx="697" cy="1009" r="1"/><circle cx="721" cy="937" r="1"/><circle cx="721" cy="961" r="1"/><circle cx="721" cy="985" r="1"/><circle cx="817" cy="865" r="1"/><circle cx="865" cy="865" r="1"/><circle cx="913" cy="889" r="1"/><circle cx="937" cy="865" r="1"/><circle cx="961" cy="913" r="1"/><circle cx="793" cy="985" r="1"/><circle cx="793" cy="1009" r="1"/><circle cx="817" cy="1009" r="1"/><circle cx="889" cy="937" r="1"/><circle cx="889" cy="985" r="1"/><circle cx="913" cy="1009" r="1"/><circle cx="937" cy="937" r="1"/><circle cx="937" cy="985" r="1"/><circle cx="961" cy="1009" r="1"/><circle cx="985" cy="913" r="1"/><circle cx="1009" cy="889" r="1"/><circle cx="1033" cy="865" r="1"/><circle cx="1081" cy="913" r="1"/><circle cx="1153" cy="865" r="1"/><circle cx="985" cy="961" r="1"/><circle cx="1033" cy="937" r="1"/><circle cx="1057" cy="961" r="1"/><circle cx="1081" cy="985" r="1"/><circle cx="1081" cy="1009" r="1"/><circle cx="1105" cy="961" r="1"/><circle cx="1129" cy="1009" r="1"/><circle cx="1153" cy="985" r="1"/><circle cx="1201" cy="865" r="1"/><circle cx="1201" cy="913" r="1"/><circle cx="1249" cy="889" r="1"/><circle cx="1273" cy="889" r="1"/><circle cx="1321" cy="913" r="1"/><circle cx="1225" cy="1009" r="1"/><circle cx="1249" cy="985" r="1"/><circle cx="1273" cy="985" r="1"/><circle cx="1273" cy="1009" r="1"/><circle cx="1297" cy="985" r="1"/><circle cx="1321" cy="985" r="1"/><circle cx="1321" cy="1009" r="1"/><circle cx="1345" cy="961" r="1"/><circle cx="1393" cy="913" r="1"/><circle cx="1417" cy="889" r="1"/><circle cx="1417" cy="913" r="1"/><circle cx="1441" cy="889" r="1"/><circle cx="1489" cy="889" r="1"/><circle cx="1513" cy="889" r="1"/><circle cx="1537" cy="889" r="1"/><circle cx="1369" cy="985" r="1"/><circle cx="1417" cy="937" r="1"/><circle cx="1417" cy="961" r="1"/><circle cx="1441" cy="961" r="1"/><circle cx="1465" cy="937" r="1"/><circle cx="1489" cy="985" r="1"/><circle cx="1513" cy="937" r="1"/><circle cx="1513" cy="961" r="1"/><circle cx="1537" cy="937" r="1"/><circle cx="1561" cy="865" r="1"/><circle cx="1585" cy="889" r="1"/><circle cx="1633" cy="889" r="1"/><circle cx="1681" cy="865" r="1"/><circle cx="1681" cy="889" r="1"/><circle cx="1729" cy="913" r="1"/><circle cx="1657" cy="937" r="1"/><circle cx="1729" cy="1009" r="1"/><circle cx="1753" cy="889" r="1"/><circle cx="1777" cy="865" r="1"/><circle cx="1801" cy="889" r="1"/><circle cx="1801" cy="913" r="1"/><circle cx="1825" cy="865" r="1"/><circle cx="1849" cy="913" r="1"/><circle cx="1" cy="961" r="1"/><circle cx="1753" cy="937" r="1"/><circle cx="1753" cy="961" r="1"/><circle cx="1801" cy="1009" r="1"/><circle cx="1849" cy="985" r="1"/><circle cx="1849" cy="1009" r="1"/><circle cx="1873" cy="937" r="1"/><circle cx="1873" cy="1009" r="1"/><circle cx="145" cy="1033" r="1"/><circle cx="217" cy="1033" r="1"/><circle cx="337" cy="1033" r="1"/><circle cx="385" cy="1033" r="1"/><circle cx="409" cy="1033" r="1"/><circle cx="697" cy="1033" r="1"/><circle cx="841" cy="1033" r="1"/><circle cx="1033" cy="1033" r="1"/><circle cx="1057" cy="1033" r="1"/><circle cx="1105" cy="1033" r="1"/><circle cx="1249" cy="1033" r="1"/><circle cx="1489" cy="1033" r="1"/><circle cx="1537" cy="1033" r="1"/><circle cx="1681" cy="1033" r="1"/><circle cx="1753" cy="1033" r="1"/><circle cx="1801" cy="1033" r="1"/><circle cx="73" cy="1057" r="1"/><circle cx="289" cy="1057" r="1"/><circle cx="409" cy="1057" r="1"/><circle cx="505" cy="1057" r="1"/><circle cx="601" cy="1057" r="1"/><circle cx="673" cy="1057" r="1"/><circle cx="937" cy="1057" r="1"/><circle cx="1225" cy="1057" r="1"/><circle cx="1393" cy="1057" r="1"/><circle cx="1441" cy="1057" r="1"/><circle cx="1513" cy="1057" r="1"/><circle cx="1585" cy="1057" r="1"/><circle cx="1609" cy="1057" r="1"/><circle cx="1729" cy="1057" r="1"/><circle cx="1873" cy="1057" r="1"/><circle cx="1897" cy="1" r="1"/><circle cx="1897" cy="49" r="1"/><circle cx="1897" cy="97" r="1"/><circle cx="1897" cy="145" r="1"/><circle cx="1897" cy="193" r="1"/><circle cx="1897" cy="241" r="1"/><circle cx="1897" cy="313" r="1"/><circle cx="1897" cy="529" r="1"/><circle cx="1897" cy="553" r="1"/><circle cx="1897" cy="625" r="1"/><circle cx="1897" cy="721" r="1"/><circle cx="1897" cy="1033" r="1"/></g></svg>