<svg xmlns="http://www.w3.org/2000/svg" xml:space="preserve" viewBox="0 0 1920 1080"><g fill="#E4E4E4"><circle cx="25" cy="49" r="1"/><circle cx="49" cy="73" r="1"/><circle cx="73" cy="49" r="1"/><circle cx="73" cy="73" r="1"/><circle cx="97" cy="25" r="1"/><circle cx="97" cy="73" r="1"/><circle cx="121" cy="97" r="1"/><circle cx="169" cy="73" r="1"/><circle cx="25" cy="121" r="1"/><circle cx="49" cy="193" r="1"/><circle cx="73" cy="169" r="1"/><circle cx="193" cy="121" r="1"/><circle cx="193" cy="169" r="1"/><circle cx="193" cy="193" r="1"/><circle cx="217" cy="25" r="1"/><circle cx="217" cy="97" r="1"/><circle cx="265" cy="25" r="1"/><circle cx="289" cy="25" r="1"/><circle cx="289" cy="73" r="1"/><circle cx="313" cy="97" r="1"/><circle cx="337" cy="25" r="1"/><circle cx="337" cy="97" r="1"/><circle cx="385" cy="49" r="1"/><circle cx="289" cy="121" r="1"/><circle cx="289" cy="193" r="1"/><circle cx="313" cy="121" r="1"/><circle cx="313" cy="169" r="1"/><circle cx="337" cy="145" r="1"/><circle cx="361" cy="121" r="1"/><circle cx="385" cy="169" r="1"/><circle cx="409" cy="97" r="1"/><circle cx="481" cy="73" r="1"/><circle cx="505" cy="25" r="1"/><circle cx="529" cy="73" r="1"/><circle cx="553" cy="25" r="1"/><circle cx="553" cy="49" r="1"/><circle cx="553" cy="73" r="1"/><circle cx="577" cy="73" r="1"/><circle cx="433" cy="121" r="1"/><circle cx="457" cy="145" r="1"/><circle cx="481" cy="193" r="1"/><circle cx="505" cy="145" r="1"/><circle cx="529" cy="193" r="1"/><circle cx="553" cy="145" r="1"/><circle cx="553" cy="193" r="1"/><circle cx="625" cy="73" r="1"/><circle cx="649" cy="49" r="1"/><circle cx="673" cy="73" r="1"/><circle cx="697" cy="25" r="1"/><circle cx="721" cy="25" r="1"/><circle cx="745" cy="25" r="1"/><circle cx="769" cy="97" r="1"/><circle cx="601" cy="145" r="1"/><circle cx="601" cy="193" r="1"/><circle cx="649" cy="193" r="1"/><circle cx="673" cy="193" r="1"/><circle cx="745" cy="145" r="1"/><circle cx="793" cy="49" r="1"/><circle cx="865" cy="25" r="1"/><circle cx="889" cy="25" r="1"/><circle cx="889" cy="49" r="1"/><circle cx="913" cy="25" r="1"/><circle cx="913" cy="97" r="1"/><circle cx="937" cy="97" r="1"/><circle cx="961" cy="49" r="1"/><circle cx="961" cy="73" r="1"/><circle cx="961" cy="97" r="1"/><circle cx="793" cy="193" r="1"/><circle cx="817" cy="169" r="1"/><circle cx="841" cy="193" r="1"/><circle cx="865" cy="169" r="1"/><circle cx="889" cy="121" r="1"/><circle cx="889" cy="169" r="1"/><circle cx="913" cy="145" r="1"/><circle cx="937" cy="145" r="1"/><circle cx="961" cy="145" r="1"/><circle cx="985" cy="25" r="1"/><circle cx="1009" cy="49" r="1"/><circle cx="1033" cy="25" r="1"/><circle cx="1033" cy="73" r="1"/><circle cx="1033" cy="97" r="1"/><circle cx="1057" cy="25" r="1"/><circle cx="1057" cy="73" r="1"/><circle cx="1105" cy="49" r="1"/><circle cx="985" cy="121" r="1"/><circle cx="985" cy="145" r="1"/><circle cx="985" cy="193" r="1"/><circle cx="1009" cy="121" r="1"/><circle cx="1033" cy="169" r="1"/><circle cx="1033" cy="193" r="1"/><circle cx="1057" cy="145" r="1"/><circle cx="1057" cy="169" r="1"/><circle cx="1081" cy="193" r="1"/><circle cx="1105" cy="121" r="1"/><circle cx="1105" cy="145" r="1"/><circle cx="1129" cy="145" r="1"/><circle cx="1129" cy="193" r="1"/><circle cx="1153" cy="193" r="1"/><circle cx="1177" cy="49" r="1"/><circle cx="1177" cy="73" r="1"/><circle cx="1201" cy="49" r="1"/><circle cx="1225" cy="25" r="1"/><circle cx="1225" cy="49" r="1"/><circle cx="1225" cy="73" r="1"/><circle cx="1249" cy="73" r="1"/><circle cx="1345" cy="73" r="1"/><circle cx="1345" cy="97" r="1"/><circle cx="1201" cy="121" r="1"/><circle cx="1201" cy="169" r="1"/><circle cx="1273" cy="169" r="1"/><circle cx="1273" cy="193" r="1"/><circle cx="1297" cy="121" r="1"/><circle cx="1297" cy="193" r="1"/><circle cx="1345" cy="145" r="1"/><circle cx="1393" cy="49" r="1"/><circle cx="1417" cy="25" r="1"/><circle cx="1417" cy="49" r="1"/><circle cx="1417" cy="73" r="1"/><circle cx="1441" cy="49" r="1"/><circle cx="1465" cy="97" r="1"/><circle cx="1537" cy="25" r="1"/><circle cx="1537" cy="73" r="1"/><circle cx="1537" cy="97" r="1"/><circle cx="1393" cy="121" r="1"/><circle cx="1393" cy="193" r="1"/><circle cx="1417" cy="121" r="1"/><circle cx="1441" cy="121" r="1"/><circle cx="1537" cy="121" r="1"/><circle cx="1537" cy="169" r="1"/><circle cx="1537" cy="193" r="1"/><circle cx="1561" cy="97" r="1"/><circle cx="1585" cy="49" r="1"/><circle cx="1609" cy="49" r="1"/><circle cx="1609" cy="73" r="1"/><circle cx="1657" cy="49" r="1"/><circle cx="1657" cy="73" r="1"/><circle cx="1681" cy="73" r="1"/><circle cx="1705" cy="97" r="1"/><circle cx="1561" cy="193" r="1"/><circle cx="1585" cy="121" r="1"/><circle cx="1585" cy="169" r="1"/><circle cx="1585" cy="193" r="1"/><circle cx="1657" cy="121" r="1"/><circle cx="1657" cy="145" r="1"/><circle cx="1681" cy="145" r="1"/><circle cx="1681" cy="169" r="1"/><circle cx="1705" cy="169" r="1"/><circle cx="1729" cy="193" r="1"/><circle cx="1801" cy="25" r="1"/><circle cx="1801" cy="97" r="1"/><circle cx="1825" cy="25" r="1"/><circle cx="1825" cy="49" r="1"/><circle cx="1825" cy="97" r="1"/><circle cx="1849" cy="49" r="1"/><circle cx="121" cy="1" r="1"/><circle cx="217" cy="1" r="1"/><circle cx="265" cy="1" r="1"/><circle cx="289" cy="1" r="1"/><circle cx="433" cy="1" r="1"/><circle cx="457" cy="1" r="1"/><circle cx="601" cy="1" r="1"/><circle cx="697" cy="1" r="1"/><circle cx="841" cy="1" r="1"/><circle cx="961" cy="1" r="1"/><circle cx="1177" cy="1" r="1"/><circle cx="1249" cy="1" r="1"/><circle cx="1561" cy="1" r="1"/><circle cx="1681" cy="1" r="1"/><circle cx="1753" cy="1" r="1"/><circle cx="1777" cy="1" r="1"/><circle cx="1849" cy="1" r="1"/><circle cx="1753" cy="145" r="1"/><circle cx="1753" cy="193" r="1"/><circle cx="1777" cy="121" r="1"/><circle cx="1801" cy="193" r="1"/><circle cx="1825" cy="145" r="1"/><circle cx="1849" cy="121" r="1"/><circle cx="1873" cy="169" r="1"/><circle cx="49" cy="241" r="1"/><circle cx="49" cy="265" r="1"/><circle cx="73" cy="241" r="1"/><circle cx="121" cy="313" r="1"/><circle cx="145" cy="289" r="1"/><circle cx="193" cy="265" r="1"/><circle cx="49" cy="385" r="1"/><circle cx="73" cy="337" r="1"/><circle cx="73" cy="409" r="1"/><circle cx="97" cy="361" r="1"/><circle cx="97" cy="385" r="1"/><circle cx="121" cy="361" r="1"/><circle cx="121" cy="409" r="1"/><circle cx="145" cy="337" r="1"/><circle cx="145" cy="385" r="1"/><circle cx="169" cy="409" r="1"/><circle cx="217" cy="289" r="1"/><circle cx="265" cy="289" r="1"/><circle cx="289" cy="265" r="1"/><circle cx="313" cy="265" r="1"/><circle cx="337" cy="241" r="1"/><circle cx="217" cy="337" r="1"/><circle cx="289" cy="409" r="1"/><circle cx="313" cy="409" r="1"/><circle cx="361" cy="337" r="1"/><circle cx="409" cy="265" r="1"/><circle cx="409" cy="289" r="1"/><circle cx="433" cy="313" r="1"/><circle cx="457" cy="241" r="1"/><circle cx="505" cy="241" r="1"/><circle cx="505" cy="265" r="1"/><circle cx="505" cy="313" r="1"/><circle cx="553" cy="241" r="1"/><circle cx="553" cy="265" r="1"/><circle cx="409" cy="385" r="1"/><circle cx="433" cy="361" r="1"/><circle cx="505" cy="337" r="1"/><circle cx="505" cy="361" r="1"/><circle cx="505" cy="409" r="1"/><circle cx="529" cy="385" r="1"/><circle cx="529" cy="409" r="1"/><circle cx="577" cy="385" r="1"/><circle cx="601" cy="313" r="1"/><circle cx="625" cy="241" r="1"/><circle cx="649" cy="313" r="1"/><circle cx="673" cy="241" r="1"/><circle cx="673" cy="265" r="1"/><circle cx="697" cy="241" r="1"/><circle cx="697" cy="313" r="1"/><circle cx="769" cy="241" r="1"/><circle cx="601" cy="361" r="1"/><circle cx="649" cy="337" r="1"/><circle cx="649" cy="385" r="1"/><circle cx="649" cy="409" r="1"/><circle cx="673" cy="337" r="1"/><circle cx="673" cy="385" r="1"/><circle cx="697" cy="337" r="1"/><circle cx="697" cy="361" r="1"/><circle cx="769" cy="361" r="1"/><circle cx="769" cy="385" r="1"/><circle cx="793" cy="313" r="1"/><circle cx="889" cy="289" r="1"/><circle cx="889" cy="313" r="1"/><circle cx="913" cy="313" r="1"/><circle cx="937" cy="313" r="1"/><circle cx="961" cy="241" r="1"/><circle cx="961" cy="289" r="1"/><circle cx="793" cy="409" r="1"/><circle cx="841" cy="385" r="1"/><circle cx="865" cy="337" r="1"/><circle cx="865" cy="361" r="1"/><circle cx="865" cy="385" r="1"/><circle cx="865" cy="409" r="1"/><circle cx="889" cy="385" r="1"/><circle cx="961" cy="337" r="1"/><circle cx="1033" cy="289" r="1"/><circle cx="1057" cy="241" r="1"/><circle cx="1057" cy="265" r="1"/><circle cx="1081" cy="289" r="1"/><circle cx="1105" cy="289" r="1"/><circle cx="1129" cy="313" r="1"/><circle cx="1153" cy="313" r="1"/><circle cx="985" cy="385" r="1"/><circle cx="985" cy="409" r="1"/><circle cx="1057" cy="385" r="1"/><circle cx="1057" cy="409" r="1"/><circle cx="1081" cy="361" r="1"/><circle cx="1081" cy="385" r="1"/><circle cx="1153" cy="337" r="1"/><circle cx="1153" cy="361" r="1"/><circle cx="1153" cy="409" r="1"/><circle cx="1177" cy="265" r="1"/><circle cx="1249" cy="241" r="1"/><circle cx="1249" cy="265" r="1"/><circle cx="1249" cy="313" r="1"/><circle cx="1273" cy="265" r="1"/><circle cx="1273" cy="313" r="1"/><circle cx="1297" cy="289" r="1"/><circle cx="1321" cy="265" r="1"/><circle cx="1321" cy="313" r="1"/><circle cx="1177" cy="361" r="1"/><circle cx="1225" cy="385" r="1"/><circle cx="1273" cy="385" r="1"/><circle cx="1321" cy="361" r="1"/><circle cx="1321" cy="385" r="1"/><circle cx="1321" cy="409" r="1"/><circle cx="1369" cy="265" r="1"/><circle cx="1369" cy="289" r="1"/><circle cx="1369" cy="313" r="1"/><circle cx="1417" cy="313" r="1"/><circle cx="1441" cy="289" r="1"/><circle cx="1441" cy="313" r="1"/><circle cx="1489" cy="265" r="1"/><circle cx="1489" cy="313" r="1"/><circle cx="1537" cy="265" r="1"/><circle cx="1537" cy="289" r="1"/><circle cx="1369" cy="337" r="1"/><circle cx="1369" cy="361" r="1"/><circle cx="1393" cy="337" r="1"/><circle cx="1417" cy="385" r="1"/><circle cx="1441" cy="337" r="1"/><circle cx="1441" cy="361" r="1"/><circle cx="1441" cy="385" r="1"/><circle cx="1465" cy="337" r="1"/><circle cx="1489" cy="385" r="1"/><circle cx="1513" cy="337" r="1"/><circle cx="1585" cy="313" r="1"/><circle cx="1681" cy="241" r="1"/><circle cx="1705" cy="265" r="1"/><circle cx="1561" cy="337" r="1"/><circle cx="1585" cy="409" r="1"/><circle cx="1609" cy="409" r="1"/><circle cx="1633" cy="337" r="1"/><circle cx="1633" cy="361" r="1"/><circle cx="1633" cy="385" r="1"/><circle cx="1657" cy="409" r="1"/><circle cx="1753" cy="313" r="1"/><circle cx="1777" cy="265" r="1"/><circle cx="1777" cy="289" r="1"/><circle cx="1825" cy="289" r="1"/><circle cx="1849" cy="241" r="1"/><circle cx="1" cy="289" r="1"/><circle cx="1" cy="313" r="1"/><circle cx="1" cy="409" r="1"/><circle cx="1" cy="217" r="1"/><circle cx="289" cy="217" r="1"/><circle cx="385" cy="217" r="1"/><circle cx="601" cy="217" r="1"/><circle cx="625" cy="217" r="1"/><circle cx="697" cy="217" r="1"/><circle cx="793" cy="217" r="1"/><circle cx="841" cy="217" r="1"/><circle cx="937" cy="217" r="1"/><circle cx="985" cy="217" r="1"/><circle cx="1033" cy="217" r="1"/><circle cx="1225" cy="217" r="1"/><circle cx="1369" cy="217" r="1"/><circle cx="1393" cy="217" r="1"/><circle cx="1513" cy="217" r="1"/><circle cx="1633" cy="217" r="1"/><circle cx="1657" cy="217" r="1"/><circle cx="1753" cy="409" r="1"/><circle cx="1777" cy="337" r="1"/><circle cx="1777" cy="385" r="1"/><circle cx="1801" cy="361" r="1"/><circle cx="1801" cy="385" r="1"/><circle cx="1825" cy="337" r="1"/><circle cx="1849" cy="361" r="1"/><circle cx="1849" cy="409" r="1"/><circle cx="25" cy="457" r="1"/><circle cx="25" cy="481" r="1"/><circle cx="73" cy="529" r="1"/><circle cx="121" cy="505" r="1"/><circle cx="145" cy="481" r="1"/><circle cx="169" cy="505" r="1"/><circle cx="193" cy="481" r="1"/><circle cx="25" cy="577" r="1"/><circle cx="73" cy="577" r="1"/><circle cx="73" cy="625" r="1"/><circle cx="97" cy="553" r="1"/><circle cx="121" cy="553" r="1"/><circle cx="121" cy="601" r="1"/><circle cx="121" cy="625" r="1"/><circle cx="145" cy="625" r="1"/><circle cx="193" cy="553" r="1"/><circle cx="217" cy="481" r="1"/><circle cx="217" cy="505" r="1"/><circle cx="241" cy="457" r="1"/><circle cx="241" cy="505" r="1"/><circle cx="289" cy="529" r="1"/><circle cx="313" cy="505" r="1"/><circle cx="337" cy="481" r="1"/><circle cx="361" cy="505" r="1"/><circle cx="385" cy="481" r="1"/><circle cx="241" cy="577" r="1"/><circle cx="265" cy="553" r="1"/><circle cx="265" cy="577" r="1"/><circle cx="265" cy="601" r="1"/><circle cx="313" cy="553" r="1"/><circle cx="313" cy="601" r="1"/><circle cx="337" cy="577" r="1"/><circle cx="337" cy="601" r="1"/><circle cx="385" cy="601" r="1"/><circle cx="433" cy="505" r="1"/><circle cx="505" cy="481" r="1"/><circle cx="529" cy="481" r="1"/><circle cx="577" cy="457" r="1"/><circle cx="577" cy="481" r="1"/><circle cx="409" cy="601" r="1"/><circle cx="457" cy="601" r="1"/><circle cx="457" cy="625" r="1"/><circle cx="481" cy="553" r="1"/><circle cx="505" cy="553" r="1"/><circle cx="529" cy="577" r="1"/><circle cx="553" cy="601" r="1"/><circle cx="577" cy="601" r="1"/><circle cx="625" cy="505" r="1"/><circle cx="625" cy="529" r="1"/><circle cx="649" cy="529" r="1"/><circle cx="673" cy="529" r="1"/><circle cx="697" cy="457" r="1"/><circle cx="697" cy="529" r="1"/><circle cx="601" cy="577" r="1"/><circle cx="601" cy="601" r="1"/><circle cx="601" cy="625" r="1"/><circle cx="673" cy="601" r="1"/><circle cx="697" cy="577" r="1"/><circle cx="697" cy="601" r="1"/><circle cx="697" cy="625" r="1"/><circle cx="721" cy="553" r="1"/><circle cx="721" cy="601" r="1"/><circle cx="745" cy="577" r="1"/><circle cx="745" cy="601" r="1"/><circle cx="769" cy="553" r="1"/><circle cx="817" cy="457" r="1"/><circle cx="817" cy="529" r="1"/><circle cx="865" cy="457" r="1"/><circle cx="865" cy="481" r="1"/><circle cx="889" cy="457" r="1"/><circle cx="889" cy="481" r="1"/><circle cx="889" cy="505" r="1"/><circle cx="913" cy="481" r="1"/><circle cx="937" cy="529" r="1"/><circle cx="961" cy="529" r="1"/><circle cx="793" cy="625" r="1"/><circle cx="817" cy="553" r="1"/><circle cx="817" cy="625" r="1"/><circle cx="841" cy="553" r="1"/><circle cx="841" cy="601" r="1"/><circle cx="841" cy="625" r="1"/><circle cx="865" cy="553" r="1"/><circle cx="865" cy="577" r="1"/><circle cx="865" cy="601" r="1"/><circle cx="913" cy="577" r="1"/><circle cx="937" cy="553" r="1"/><circle cx="937" cy="577" r="1"/><circle cx="937" cy="601" r="1"/><circle cx="961" cy="625" r="1"/><circle cx="985" cy="529" r="1"/><circle cx="1009" cy="457" r="1"/><circle cx="1009" cy="481" r="1"/><circle cx="1033" cy="505" r="1"/><circle cx="1057" cy="481" r="1"/><circle cx="1057" cy="505" r="1"/><circle cx="1057" cy="529" r="1"/><circle cx="1105" cy="481" r="1"/><circle cx="1105" cy="529" r="1"/><circle cx="1129" cy="505" r="1"/><circle cx="1129" cy="529" r="1"/><circle cx="1153" cy="481" r="1"/><circle cx="985" cy="553" r="1"/><circle cx="985" cy="577" r="1"/><circle cx="1009" cy="553" r="1"/><circle cx="1009" cy="601" r="1"/><circle cx="1057" cy="577" r="1"/><circle cx="1057" cy="601" r="1"/><circle cx="1081" cy="553" r="1"/><circle cx="1081" cy="577" r="1"/><circle cx="1129" cy="553" r="1"/><circle cx="1129" cy="577" r="1"/><circle cx="1153" cy="601" r="1"/><circle cx="1177" cy="457" r="1"/><circle cx="1177" cy="505" r="1"/><circle cx="1177" cy="529" r="1"/><circle cx="1201" cy="457" r="1"/><circle cx="1201" cy="481" r="1"/><circle cx="1201" cy="505" r="1"/><circle cx="1225" cy="481" r="1"/><circle cx="1225" cy="529" r="1"/><circle cx="1249" cy="481" r="1"/><circle cx="1297" cy="481" r="1"/><circle cx="1321" cy="529" r="1"/><circle cx="1345" cy="457" r="1"/><circle cx="1345" cy="481" r="1"/><circle cx="1177" cy="553" r="1"/><circle cx="1177" cy="625" r="1"/><circle cx="1201" cy="577" r="1"/><circle cx="1225" cy="577" r="1"/><circle cx="1249" cy="553" r="1"/><circle cx="1249" cy="601" r="1"/><circle cx="1297" cy="553" r="1"/><circle cx="1297" cy="601" r="1"/><circle cx="1321" cy="577" r="1"/><circle cx="1345" cy="553" r="1"/><circle cx="1417" cy="529" r="1"/><circle cx="1441" cy="457" r="1"/><circle cx="1465" cy="505" r="1"/><circle cx="1489" cy="481" r="1"/><circle cx="1489" cy="529" r="1"/><circle cx="1513" cy="529" r="1"/><circle cx="1393" cy="553" r="1"/><circle cx="1393" cy="577" r="1"/><circle cx="1441" cy="625" r="1"/><circle cx="1465" cy="577" r="1"/><circle cx="1489" cy="601" r="1"/><circle cx="1513" cy="577" r="1"/><circle cx="1561" cy="529" r="1"/><circle cx="1585" cy="481" r="1"/><circle cx="1585" cy="529" r="1"/><circle cx="1633" cy="481" r="1"/><circle cx="1729" cy="457" r="1"/><circle cx="1729" cy="481" r="1"/><circle cx="1561" cy="553" r="1"/><circle cx="1561" cy="577" r="1"/><circle cx="1609" cy="601" r="1"/><circle cx="1633" cy="601" r="1"/><circle cx="1657" cy="577" r="1"/><circle cx="1657" cy="625" r="1"/><circle cx="1705" cy="577" r="1"/><circle cx="1753" cy="481" r="1"/><circle cx="1825" cy="529" r="1"/><circle cx="1849" cy="529" r="1"/><circle cx="1873" cy="457" r="1"/><circle cx="25" cy="433" r="1"/><circle cx="1" cy="553" r="1"/><circle cx="49" cy="433" r="1"/><circle cx="145" cy="433" r="1"/><circle cx="217" cy="433" r="1"/><circle cx="457" cy="433" r="1"/><circle cx="481" cy="433" r="1"/><circle cx="505" cy="433" r="1"/><circle cx="673" cy="433" r="1"/><circle cx="721" cy="433" r="1"/><circle cx="769" cy="433" r="1"/><circle cx="865" cy="433" r="1"/><circle cx="913" cy="433" r="1"/><circle cx="937" cy="433" r="1"/><circle cx="985" cy="433" r="1"/><circle cx="1393" cy="433" r="1"/><circle cx="1537" cy="433" r="1"/><circle cx="1753" cy="433" r="1"/><circle cx="1753" cy="625" r="1"/><circle cx="1777" cy="601" r="1"/><circle cx="1801" cy="601" r="1"/><circle cx="1825" cy="601" r="1"/><circle cx="1849" cy="577" r="1"/><circle cx="1849" cy="625" r="1"/><circle cx="1873" cy="601" r="1"/><circle cx="1873" cy="625" r="1"/><circle cx="25" cy="673" r="1"/><circle cx="25" cy="697" r="1"/><circle cx="73" cy="673" r="1"/><circle cx="73" cy="697" r="1"/><circle cx="145" cy="721" r="1"/><circle cx="145" cy="745" r="1"/><circle cx="193" cy="673" r="1"/><circle cx="25" cy="817" r="1"/><circle cx="49" cy="793" r="1"/><circle cx="73" cy="793" r="1"/><circle cx="121" cy="793" r="1"/><circle cx="145" cy="769" r="1"/><circle cx="145" cy="817" r="1"/><circle cx="217" cy="673" r="1"/><circle cx="241" cy="673" r="1"/><circle cx="265" cy="673" r="1"/><circle cx="265" cy="745" r="1"/><circle cx="313" cy="673" r="1"/><circle cx="313" cy="697" r="1"/><circle cx="337" cy="673" r="1"/><circle cx="337" cy="745" r="1"/><circle cx="361" cy="673" r="1"/><circle cx="361" cy="745" r="1"/><circle cx="385" cy="721" r="1"/><circle cx="217" cy="817" r="1"/><circle cx="265" cy="769" r="1"/><circle cx="289" cy="841" r="1"/><circle cx="313" cy="817" r="1"/><circle cx="337" cy="793" r="1"/><circle cx="409" cy="673" r="1"/><circle cx="409" cy="745" r="1"/><circle cx="505" cy="673" r="1"/><circle cx="529" cy="721" r="1"/><circle cx="553" cy="721" r="1"/><circle cx="577" cy="745" r="1"/><circle cx="433" cy="769" r="1"/><circle cx="433" cy="793" r="1"/><circle cx="433" cy="817" r="1"/><circle cx="433" cy="841" r="1"/><circle cx="649" cy="673" r="1"/><circle cx="697" cy="697" r="1"/><circle cx="721" cy="697" r="1"/><circle cx="721" cy="721" r="1"/><circle cx="745" cy="697" r="1"/><circle cx="769" cy="673" r="1"/><circle cx="601" cy="769" r="1"/><circle cx="601" cy="793" r="1"/><circle cx="625" cy="769" r="1"/><circle cx="625" cy="817" r="1"/><circle cx="625" cy="841" r="1"/><circle cx="649" cy="841" r="1"/><circle cx="673" cy="793" r="1"/><circle cx="673" cy="817" r="1"/><circle cx="697" cy="793" r="1"/><circle cx="793" cy="673" r="1"/><circle cx="817" cy="721" r="1"/><circle cx="817" cy="745" r="1"/><circle cx="841" cy="673" r="1"/><circle cx="865" cy="673" r="1"/><circle cx="913" cy="697" r="1"/><circle cx="913" cy="745" r="1"/><circle cx="937" cy="745" r="1"/><circle cx="961" cy="673" r="1"/><circle cx="793" cy="793" r="1"/><circle cx="817" cy="769" r="1"/><circle cx="865" cy="817" r="1"/><circle cx="961" cy="841" r="1"/><circle cx="985" cy="697" r="1"/><circle cx="985" cy="721" r="1"/><circle cx="1009" cy="745" r="1"/><circle cx="1033" cy="673" r="1"/><circle cx="1033" cy="697" r="1"/><circle cx="1033" cy="721" r="1"/><circle cx="1057" cy="721" r="1"/><circle cx="1057" cy="745" r="1"/><circle cx="1105" cy="697" r="1"/><circle cx="1129" cy="745" r="1"/><circle cx="1009" cy="769" r="1"/><circle cx="1009" cy="841" r="1"/><circle cx="1033" cy="769" r="1"/><circle cx="1033" cy="841" r="1"/><circle cx="1081" cy="793" r="1"/><circle cx="1105" cy="793" r="1"/><circle cx="1177" cy="745" r="1"/><circle cx="1201" cy="673" r="1"/><circle cx="1201" cy="697" r="1"/><circle cx="1201" cy="721" r="1"/><circle cx="1225" cy="721" r="1"/><circle cx="1225" cy="745" r="1"/><circle cx="1249" cy="721" r="1"/><circle cx="1249" cy="745" r="1"/><circle cx="1321" cy="673" r="1"/><circle cx="1321" cy="697" r="1"/><circle cx="1345" cy="673" r="1"/><circle cx="1345" cy="721" r="1"/><circle cx="1345" cy="745" r="1"/><circle cx="1177" cy="793" r="1"/><circle cx="1201" cy="793" r="1"/><circle cx="1201" cy="817" r="1"/><circle cx="1225" cy="769" r="1"/><circle cx="1225" cy="793" r="1"/><circle cx="1273" cy="769" r="1"/><circle cx="1273" cy="793" r="1"/><circle cx="1273" cy="841" r="1"/><circle cx="1393" cy="673" r="1"/><circle cx="1393" cy="697" r="1"/><circle cx="1417" cy="745" r="1"/><circle cx="1441" cy="697" r="1"/><circle cx="1465" cy="721" r="1"/><circle cx="1489" cy="721" r="1"/><circle cx="1489" cy="745" r="1"/><circle cx="1369" cy="793" r="1"/><circle cx="1393" cy="793" r="1"/><circle cx="1417" cy="793" r="1"/><circle cx="1417" cy="817" r="1"/><circle cx="1465" cy="769" r="1"/><circle cx="1465" cy="793" r="1"/><circle cx="1465" cy="817" r="1"/><circle cx="1489" cy="817" r="1"/><circle cx="1489" cy="841" r="1"/><circle cx="1513" cy="769" r="1"/><circle cx="1513" cy="817" r="1"/><circle cx="1537" cy="769" r="1"/><circle cx="1561" cy="673" r="1"/><circle cx="1561" cy="721" r="1"/><circle cx="1585" cy="745" r="1"/><circle cx="1609" cy="673" r="1"/><circle cx="1609" cy="745" r="1"/><circle cx="1633" cy="697" r="1"/><circle cx="1681" cy="673" r="1"/><circle cx="1681" cy="697" r="1"/><circle cx="1585" cy="769" r="1"/><circle cx="1609" cy="793" r="1"/><circle cx="1633" cy="793" r="1"/><circle cx="1657" cy="769" r="1"/><circle cx="1657" cy="841" r="1"/><circle cx="1681" cy="841" r="1"/><circle cx="1729" cy="793" r="1"/><circle cx="1729" cy="841" r="1"/><circle cx="1753" cy="721" r="1"/><circle cx="1777" cy="697" r="1"/><circle cx="1801" cy="721" r="1"/><circle cx="1801" cy="745" r="1"/><circle cx="1825" cy="673" r="1"/><circle cx="1825" cy="721" r="1"/><circle cx="1" cy="721" r="1"/><circle cx="313" cy="649" r="1"/><circle cx="337" cy="649" r="1"/><circle cx="361" cy="649" r="1"/><circle cx="385" cy="649" r="1"/><circle cx="649" cy="649" r="1"/><circle cx="745" cy="649" r="1"/><circle cx="865" cy="649" r="1"/><circle cx="913" cy="649" r="1"/><circle cx="985" cy="649" r="1"/><circle cx="1033" cy="649" r="1"/><circle cx="1129" cy="649" r="1"/><circle cx="1177" cy="649" r="1"/><circle cx="1201" cy="649" r="1"/><circle cx="1249" cy="649" r="1"/><circle cx="1321" cy="649" r="1"/><circle cx="1345" cy="649" r="1"/><circle cx="1801" cy="649" r="1"/><circle cx="1873" cy="745" r="1"/><circle cx="1777" cy="841" r="1"/><circle cx="1801" cy="769" r="1"/><circle cx="1801" cy="841" r="1"/><circle cx="1825" cy="769" r="1"/><circle cx="1825" cy="793" r="1"/><circle cx="1825" cy="841" r="1"/><circle cx="1873" cy="793" r="1"/><circle cx="73" cy="865" r="1"/><circle cx="97" cy="865" r="1"/><circle cx="97" cy="913" r="1"/><circle cx="121" cy="865" r="1"/><circle cx="121" cy="913" r="1"/><circle cx="193" cy="865" r="1"/><circle cx="25" cy="985" r="1"/><circle cx="25" cy="1009" r="1"/><circle cx="49" cy="985" r="1"/><circle cx="73" cy="961" r="1"/><circle cx="97" cy="1009" r="1"/><circle cx="121" cy="961" r="1"/><circle cx="145" cy="985" r="1"/><circle cx="193" cy="985" r="1"/><circle cx="217" cy="865" r="1"/><circle cx="217" cy="889" r="1"/><circle cx="241" cy="889" r="1"/><circle cx="241" cy="913" r="1"/><circle cx="313" cy="913" r="1"/><circle cx="337" cy="889" r="1"/><circle cx="385" cy="865" r="1"/><circle cx="241" cy="961" r="1"/><circle cx="241" cy="1009" r="1"/><circle cx="289" cy="961" r="1"/><circle cx="289" cy="985" r="1"/><circle cx="337" cy="1009" r="1"/><circle cx="361" cy="1009" r="1"/><circle cx="385" cy="937" r="1"/><circle cx="385" cy="1009" r="1"/><circle cx="409" cy="865" r="1"/><circle cx="433" cy="889" r="1"/><circle cx="457" cy="865" r="1"/><circle cx="457" cy="913" r="1"/><circle cx="553" cy="913" r="1"/><circle cx="577" cy="913" r="1"/><circle cx="409" cy="937" r="1"/><circle cx="433" cy="985" r="1"/><circle cx="457" cy="1009" r="1"/><circle cx="505" cy="937" r="1"/><circle cx="553" cy="937" r="1"/><circle cx="601" cy="913" r="1"/><circle cx="673" cy="913" r="1"/><circle cx="697" cy="865" r="1"/><circle cx="697" cy="889" r="1"/><circle cx="697" cy="913" r="1"/><circle cx="721" cy="865" r="1"/><circle cx="601" cy="961" r="1"/><circle cx="625" cy="1009" r="1"/><circle cx="649" cy="961" r="1"/><circle cx="673" cy="937" r="1"/><circle cx="673" cy="1009" r="1"/><circle cx="745" cy="961" r="1"/><circle cx="769" cy="961" r="1"/><circle cx="793" cy="889" r="1"/><circle cx="841" cy="865" r="1"/><circle cx="841" cy="889" r="1"/><circle cx="865" cy="913" r="1"/><circle cx="913" cy="865" r="1"/><circle cx="937" cy="913" r="1"/><circle cx="961" cy="889" r="1"/><circle cx="817" cy="985" r="1"/><circle cx="841" cy="961" r="1"/><circle cx="841" cy="985" r="1"/><circle cx="865" cy="961" r="1"/><circle cx="865" cy="985" r="1"/><circle cx="865" cy="1009" r="1"/><circle cx="913" cy="937" r="1"/><circle cx="961" cy="937" r="1"/><circle cx="961" cy="985" r="1"/><circle cx="985" cy="889" r="1"/><circle cx="1009" cy="865" r="1"/><circle cx="1081" cy="865" r="1"/><circle cx="1105" cy="865" r="1"/><circle cx="1105" cy="889" r="1"/><circle cx="1105" cy="913" r="1"/><circle cx="1153" cy="889" r="1"/><circle cx="985" cy="985" r="1"/><circle cx="1033" cy="985" r="1"/><circle cx="1057" cy="937" r="1"/><circle cx="1105" cy="937" r="1"/><circle cx="1105" cy="985" r="1"/><circle cx="1129" cy="937" r="1"/><circle cx="1129" cy="961" r="1"/><circle cx="1153" cy="937" r="1"/><circle cx="1153" cy="1009" r="1"/><circle cx="1177" cy="865" r="1"/><circle cx="1177" cy="889" r="1"/><circle cx="1225" cy="913" r="1"/><circle cx="1249" cy="913" r="1"/><circle cx="1273" cy="865" r="1"/><circle cx="1273" cy="913" r="1"/><circle cx="1345" cy="913" r="1"/><circle cx="1201" cy="937" r="1"/><circle cx="1249" cy="937" r="1"/><circle cx="1297" cy="937" r="1"/><circle cx="1297" cy="961" r="1"/><circle cx="1297" cy="1009" r="1"/><circle cx="1321" cy="961" r="1"/><circle cx="1465" cy="889" r="1"/><circle cx="1369" cy="937" r="1"/><circle cx="1393" cy="985" r="1"/><circle cx="1393" cy="1009" r="1"/><circle cx="1441" cy="985" r="1"/><circle cx="1441" cy="1009" r="1"/><circle cx="1465" cy="961" r="1"/><circle cx="1489" cy="937" r="1"/><circle cx="1489" cy="1009" r="1"/><circle cx="1513" cy="1009" r="1"/><circle cx="1537" cy="985" r="1"/><circle cx="1609" cy="913" r="1"/><circle cx="1633" cy="913" r="1"/><circle cx="1657" cy="865" r="1"/><circle cx="1681" cy="913" r="1"/><circle cx="1729" cy="889" r="1"/><circle cx="1561" cy="961" r="1"/><circle cx="1561" cy="985" r="1"/><circle cx="1585" cy="961" r="1"/><circle cx="1633" cy="961" r="1"/><circle cx="1681" cy="1009" r="1"/><circle cx="1705" cy="1009" r="1"/><circle cx="1753" cy="913" r="1"/><circle cx="1777" cy="913" r="1"/><circle cx="1873" cy="865" r="1"/><circle cx="1873" cy="889" r="1"/><circle cx="1777" cy="985" r="1"/><circle cx="1801" cy="985" r="1"/><circle cx="1825" cy="937" r="1"/><circle cx="25" cy="1033" r="1"/><circle cx="73" cy="1033" r="1"/><circle cx="121" cy="1033" r="1"/><circle cx="289" cy="1033" r="1"/><circle cx="313" cy="1033" r="1"/><circle cx="361" cy="1033" r="1"/><circle cx="433" cy="1033" r="1"/><circle cx="457" cy="1033" r="1"/><circle cx="553" cy="1033" r="1"/><circle cx="601" cy="1033" r="1"/><circle cx="625" cy="1033" r="1"/><circle cx="673" cy="1033" r="1"/><circle cx="769" cy="1033" r="1"/><circle cx="793" cy="1033" r="1"/><circle cx="1009" cy="1033" r="1"/><circle cx="1081" cy="1033" r="1"/><circle cx="1177" cy="1033" r="1"/><circle cx="1273" cy="1033" r="1"/><circle cx="1297" cy="1033" r="1"/><circle cx="1345" cy="1033" r="1"/><circle cx="1561" cy="1033" r="1"/><circle cx="1585" cy="1033" r="1"/><circle cx="1609" cy="1033" r="1"/><circle cx="1657" cy="1033" r="1"/><circle cx="1729" cy="1033" r="1"/><circle cx="1849" cy="1033" r="1"/><circle cx="1873" cy="1033" r="1"/><circle cx="25" cy="1057" r="1"/><circle cx="121" cy="1057" r="1"/><circle cx="145" cy="1057" r="1"/><circle cx="193" cy="1057" r="1"/><circle cx="217" cy="1057" r="1"/><circle cx="265" cy="1057" r="1"/><circle cx="385" cy="1057" r="1"/><circle cx="433" cy="1057" r="1"/><circle cx="529" cy="1057" r="1"/><circle cx="625" cy="1057" r="1"/><circle cx="697" cy="1057" r="1"/><circle cx="889" cy="1057" r="1"/><circle cx="913" cy="1057" r="1"/><circle cx="1009" cy="1057" r="1"/><circle cx="1129" cy="1057" r="1"/><circle cx="1177" cy="1057" r="1"/><circle cx="1201" cy="1057" r="1"/><circle cx="1273" cy="1057" r="1"/><circle cx="1297" cy="1057" r="1"/><circle cx="1321" cy="1057" r="1"/><circle cx="1561" cy="1057" r="1"/><circle cx="1657" cy="1057" r="1"/><circle cx="1897" cy="25" r="1"/><circle cx="1897" cy="121" r="1"/><circle cx="1897" cy="169" r="1"/><circle cx="1897" cy="217" r="1"/><circle cx="1897" cy="265" r="1"/><circle cx="1897" cy="289" r="1"/><circle cx="1897" cy="337" r="1"/><circle cx="1897" cy="409" r="1"/><circle cx="1897" cy="457" r="1"/><circle cx="1897" cy="577" r="1"/><circle cx="1897" cy="673" r="1"/><circle cx="1897" cy="697" r="1"/><circle cx="1897" cy="793" r="1"/><circle cx="1897" cy="817" r="1"/><circle cx="1897" cy="865" r="1"/><circle cx="1897" cy="913" r="1"/></g></svg>