<svg xmlns="http://www.w3.org/2000/svg" xml:space="preserve" viewBox="0 0 1920 1080"><g fill="#E4E4E4"><circle cx="25" cy="73" r="1"/><circle cx="25" cy="97" r="1"/><circle cx="49" cy="49" r="1"/><circle cx="97" cy="49" r="1"/><circle cx="145" cy="97" r="1"/><circle cx="169" cy="49" r="1"/><circle cx="193" cy="73" r="1"/><circle cx="193" cy="97" r="1"/><circle cx="73" cy="193" r="1"/><circle cx="97" cy="121" r="1"/><circle cx="97" cy="145" r="1"/><circle cx="145" cy="193" r="1"/><circle cx="169" cy="145" r="1"/><circle cx="241" cy="25" r="1"/><circle cx="241" cy="49" r="1"/><circle cx="265" cy="73" r="1"/><circle cx="265" cy="97" r="1"/><circle cx="289" cy="97" r="1"/><circle cx="337" cy="49" r="1"/><circle cx="361" cy="25" r="1"/><circle cx="361" cy="73" r="1"/><circle cx="385" cy="25" r="1"/><circle cx="385" cy="73" r="1"/><circle cx="217" cy="121" r="1"/><circle cx="217" cy="145" r="1"/><circle cx="217" cy="193" r="1"/><circle cx="241" cy="145" r="1"/><circle cx="241" cy="193" r="1"/><circle cx="265" cy="169" r="1"/><circle cx="313" cy="193" r="1"/><circle cx="337" cy="193" r="1"/><circle cx="385" cy="145" r="1"/><circle cx="433" cy="25" r="1"/><circle cx="433" cy="49" r="1"/><circle cx="457" cy="97" r="1"/><circle cx="505" cy="49" r="1"/><circle cx="529" cy="25" r="1"/><circle cx="553" cy="97" r="1"/><circle cx="433" cy="169" r="1"/><circle cx="457" cy="121" r="1"/><circle cx="457" cy="169" r="1"/><circle cx="577" cy="121" r="1"/><circle cx="577" cy="169" r="1"/><circle cx="577" cy="193" r="1"/><circle cx="649" cy="25" r="1"/><circle cx="649" cy="73" r="1"/><circle cx="745" cy="73" r="1"/><circle cx="769" cy="25" r="1"/><circle cx="769" cy="49" r="1"/><circle cx="625" cy="193" r="1"/><circle cx="673" cy="169" r="1"/><circle cx="721" cy="145" r="1"/><circle cx="817" cy="25" r="1"/><circle cx="817" cy="49" r="1"/><circle cx="841" cy="25" r="1"/><circle cx="841" cy="97" r="1"/><circle cx="889" cy="73" r="1"/><circle cx="889" cy="97" r="1"/><circle cx="937" cy="25" r="1"/><circle cx="961" cy="25" r="1"/><circle cx="793" cy="121" r="1"/><circle cx="865" cy="145" r="1"/><circle cx="865" cy="193" r="1"/><circle cx="889" cy="193" r="1"/><circle cx="913" cy="169" r="1"/><circle cx="937" cy="121" r="1"/><circle cx="961" cy="193" r="1"/><circle cx="985" cy="73" r="1"/><circle cx="985" cy="97" r="1"/><circle cx="1009" cy="97" r="1"/><circle cx="1033" cy="49" r="1"/><circle cx="1081" cy="25" r="1"/><circle cx="1153" cy="25" r="1"/><circle cx="1009" cy="169" r="1"/><circle cx="1057" cy="121" r="1"/><circle cx="1081" cy="145" r="1"/><circle cx="1081" cy="169" r="1"/><circle cx="1105" cy="169" r="1"/><circle cx="1153" cy="121" r="1"/><circle cx="1249" cy="25" r="1"/><circle cx="1297" cy="97" r="1"/><circle cx="1321" cy="49" r="1"/><circle cx="1345" cy="49" r="1"/><circle cx="1201" cy="193" r="1"/><circle cx="1225" cy="121" r="1"/><circle cx="1225" cy="145" r="1"/><circle cx="1249" cy="121" r="1"/><circle cx="1249" cy="145" r="1"/><circle cx="1249" cy="169" r="1"/><circle cx="1345" cy="121" r="1"/><circle cx="1345" cy="169" r="1"/><circle cx="1345" cy="193" r="1"/><circle cx="1369" cy="49" r="1"/><circle cx="1369" cy="73" r="1"/><circle cx="1393" cy="25" r="1"/><circle cx="1393" cy="73" r="1"/><circle cx="1417" cy="97" r="1"/><circle cx="1465" cy="49" r="1"/><circle cx="1489" cy="25" r="1"/><circle cx="1489" cy="73" r="1"/><circle cx="1489" cy="97" r="1"/><circle cx="1513" cy="25" r="1"/><circle cx="1513" cy="49" r="1"/><circle cx="1513" cy="73" r="1"/><circle cx="1513" cy="97" r="1"/><circle cx="1369" cy="121" r="1"/><circle cx="1369" cy="169" r="1"/><circle cx="1417" cy="193" r="1"/><circle cx="1441" cy="193" r="1"/><circle cx="1489" cy="193" r="1"/><circle cx="1513" cy="145" r="1"/><circle cx="1513" cy="169" r="1"/><circle cx="1513" cy="193" r="1"/><circle cx="1561" cy="25" r="1"/><circle cx="1561" cy="49" r="1"/><circle cx="1585" cy="97" r="1"/><circle cx="1609" cy="25" r="1"/><circle cx="1633" cy="49" r="1"/><circle cx="1681" cy="49" r="1"/><circle cx="1705" cy="25" r="1"/><circle cx="1729" cy="25" r="1"/><circle cx="1561" cy="121" r="1"/><circle cx="1561" cy="169" r="1"/><circle cx="1609" cy="121" r="1"/><circle cx="1609" cy="145" r="1"/><circle cx="1633" cy="145" r="1"/><circle cx="1633" cy="193" r="1"/><circle cx="1681" cy="121" r="1"/><circle cx="1705" cy="121" r="1"/><circle cx="1729" cy="145" r="1"/><circle cx="1777" cy="25" r="1"/><circle cx="1777" cy="97" r="1"/><circle cx="1801" cy="49" r="1"/><circle cx="1801" cy="73" r="1"/><circle cx="1849" cy="25" r="1"/><circle cx="1849" cy="97" r="1"/><circle cx="25" cy="1" r="1"/><circle cx="1" cy="73" r="1"/><circle cx="1" cy="169" r="1"/><circle cx="1" cy="193" r="1"/><circle cx="97" cy="1" r="1"/><circle cx="385" cy="1" r="1"/><circle cx="505" cy="1" r="1"/><circle cx="577" cy="1" r="1"/><circle cx="625" cy="1" r="1"/><circle cx="673" cy="1" r="1"/><circle cx="745" cy="1" r="1"/><circle cx="769" cy="1" r="1"/><circle cx="817" cy="1" r="1"/><circle cx="937" cy="1" r="1"/><circle cx="1009" cy="1" r="1"/><circle cx="1033" cy="1" r="1"/><circle cx="1105" cy="1" r="1"/><circle cx="1153" cy="1" r="1"/><circle cx="1369" cy="1" r="1"/><circle cx="1441" cy="1" r="1"/><circle cx="1513" cy="1" r="1"/><circle cx="1609" cy="1" r="1"/><circle cx="1825" cy="1" r="1"/><circle cx="1873" cy="49" r="1"/><circle cx="1873" cy="97" r="1"/><circle cx="1753" cy="169" r="1"/><circle cx="1777" cy="145" r="1"/><circle cx="1777" cy="193" r="1"/><circle cx="1825" cy="121" r="1"/><circle cx="1825" cy="169" r="1"/><circle cx="1849" cy="145" r="1"/><circle cx="1849" cy="169" r="1"/><circle cx="1849" cy="193" r="1"/><circle cx="1873" cy="193" r="1"/><circle cx="49" cy="313" r="1"/><circle cx="97" cy="265" r="1"/><circle cx="121" cy="265" r="1"/><circle cx="145" cy="241" r="1"/><circle cx="169" cy="241" r="1"/><circle cx="169" cy="265" r="1"/><circle cx="169" cy="313" r="1"/><circle cx="193" cy="241" r="1"/><circle cx="193" cy="313" r="1"/><circle cx="25" cy="361" r="1"/><circle cx="25" cy="385" r="1"/><circle cx="25" cy="409" r="1"/><circle cx="49" cy="337" r="1"/><circle cx="49" cy="361" r="1"/><circle cx="49" cy="409" r="1"/><circle cx="97" cy="337" r="1"/><circle cx="121" cy="337" r="1"/><circle cx="145" cy="409" r="1"/><circle cx="169" cy="385" r="1"/><circle cx="193" cy="337" r="1"/><circle cx="217" cy="313" r="1"/><circle cx="313" cy="241" r="1"/><circle cx="313" cy="289" r="1"/><circle cx="361" cy="265" r="1"/><circle cx="385" cy="313" r="1"/><circle cx="217" cy="385" r="1"/><circle cx="217" cy="409" r="1"/><circle cx="241" cy="337" r="1"/><circle cx="241" cy="385" r="1"/><circle cx="241" cy="409" r="1"/><circle cx="265" cy="385" r="1"/><circle cx="289" cy="337" r="1"/><circle cx="289" cy="385" r="1"/><circle cx="313" cy="337" r="1"/><circle cx="313" cy="361" r="1"/><circle cx="313" cy="385" r="1"/><circle cx="337" cy="337" r="1"/><circle cx="337" cy="361" r="1"/><circle cx="337" cy="409" r="1"/><circle cx="457" cy="265" r="1"/><circle cx="481" cy="289" r="1"/><circle cx="529" cy="241" r="1"/><circle cx="529" cy="313" r="1"/><circle cx="553" cy="313" r="1"/><circle cx="577" cy="265" r="1"/><circle cx="433" cy="337" r="1"/><circle cx="457" cy="385" r="1"/><circle cx="481" cy="337" r="1"/><circle cx="481" cy="361" r="1"/><circle cx="481" cy="385" r="1"/><circle cx="529" cy="361" r="1"/><circle cx="577" cy="361" r="1"/><circle cx="577" cy="409" r="1"/><circle cx="601" cy="265" r="1"/><circle cx="625" cy="313" r="1"/><circle cx="649" cy="241" r="1"/><circle cx="649" cy="289" r="1"/><circle cx="673" cy="289" r="1"/><circle cx="673" cy="313" r="1"/><circle cx="697" cy="289" r="1"/><circle cx="721" cy="265" r="1"/><circle cx="721" cy="313" r="1"/><circle cx="745" cy="241" r="1"/><circle cx="745" cy="265" r="1"/><circle cx="769" cy="265" r="1"/><circle cx="769" cy="289" r="1"/><circle cx="769" cy="313" r="1"/><circle cx="601" cy="385" r="1"/><circle cx="601" cy="409" r="1"/><circle cx="625" cy="337" r="1"/><circle cx="673" cy="361" r="1"/><circle cx="697" cy="409" r="1"/><circle cx="793" cy="265" r="1"/><circle cx="817" cy="265" r="1"/><circle cx="841" cy="313" r="1"/><circle cx="865" cy="289" r="1"/><circle cx="889" cy="241" r="1"/><circle cx="889" cy="265" r="1"/><circle cx="913" cy="241" r="1"/><circle cx="913" cy="265" r="1"/><circle cx="913" cy="289" r="1"/><circle cx="937" cy="241" r="1"/><circle cx="937" cy="265" r="1"/><circle cx="961" cy="265" r="1"/><circle cx="817" cy="409" r="1"/><circle cx="841" cy="337" r="1"/><circle cx="889" cy="409" r="1"/><circle cx="913" cy="361" r="1"/><circle cx="937" cy="361" r="1"/><circle cx="937" cy="409" r="1"/><circle cx="961" cy="361" r="1"/><circle cx="985" cy="265" r="1"/><circle cx="985" cy="313" r="1"/><circle cx="1009" cy="265" r="1"/><circle cx="1009" cy="313" r="1"/><circle cx="1033" cy="265" r="1"/><circle cx="1081" cy="241" r="1"/><circle cx="1129" cy="289" r="1"/><circle cx="985" cy="337" r="1"/><circle cx="985" cy="361" r="1"/><circle cx="1009" cy="385" r="1"/><circle cx="1033" cy="409" r="1"/><circle cx="1057" cy="337" r="1"/><circle cx="1105" cy="361" r="1"/><circle cx="1201" cy="241" r="1"/><circle cx="1201" cy="265" r="1"/><circle cx="1225" cy="313" r="1"/><circle cx="1273" cy="241" r="1"/><circle cx="1273" cy="289" r="1"/><circle cx="1297" cy="265" r="1"/><circle cx="1321" cy="289" r="1"/><circle cx="1345" cy="289" r="1"/><circle cx="1177" cy="409" r="1"/><circle cx="1201" cy="337" r="1"/><circle cx="1273" cy="361" r="1"/><circle cx="1297" cy="337" r="1"/><circle cx="1297" cy="409" r="1"/><circle cx="1393" cy="241" r="1"/><circle cx="1393" cy="313" r="1"/><circle cx="1441" cy="241" r="1"/><circle cx="1465" cy="313" r="1"/><circle cx="1489" cy="241" r="1"/><circle cx="1513" cy="241" r="1"/><circle cx="1513" cy="313" r="1"/><circle cx="1537" cy="241" r="1"/><circle cx="1537" cy="313" r="1"/><circle cx="1369" cy="385" r="1"/><circle cx="1393" cy="409" r="1"/><circle cx="1417" cy="361" r="1"/><circle cx="1441" cy="409" r="1"/><circle cx="1513" cy="385" r="1"/><circle cx="1537" cy="361" r="1"/><circle cx="1561" cy="241" r="1"/><circle cx="1585" cy="265" r="1"/><circle cx="1609" cy="241" r="1"/><circle cx="1609" cy="289" r="1"/><circle cx="1609" cy="313" r="1"/><circle cx="1633" cy="265" r="1"/><circle cx="1633" cy="289" r="1"/><circle cx="1657" cy="241" r="1"/><circle cx="1729" cy="265" r="1"/><circle cx="1561" cy="361" r="1"/><circle cx="1609" cy="337" r="1"/><circle cx="1609" cy="361" r="1"/><circle cx="1633" cy="409" r="1"/><circle cx="1657" cy="337" r="1"/><circle cx="1681" cy="361" r="1"/><circle cx="1729" cy="385" r="1"/><circle cx="1777" cy="313" r="1"/><circle cx="1801" cy="265" r="1"/><circle cx="1825" cy="241" r="1"/><circle cx="1825" cy="313" r="1"/><circle cx="1849" cy="289" r="1"/><circle cx="25" cy="217" r="1"/><circle cx="1" cy="337" r="1"/><circle cx="1" cy="385" r="1"/><circle cx="145" cy="217" r="1"/><circle cx="241" cy="217" r="1"/><circle cx="409" cy="217" r="1"/><circle cx="481" cy="217" r="1"/><circle cx="505" cy="217" r="1"/><circle cx="721" cy="217" r="1"/><circle cx="745" cy="217" r="1"/><circle cx="817" cy="217" r="1"/><circle cx="913" cy="217" r="1"/><circle cx="1009" cy="217" r="1"/><circle cx="1057" cy="217" r="1"/><circle cx="1081" cy="217" r="1"/><circle cx="1129" cy="217" r="1"/><circle cx="1177" cy="217" r="1"/><circle cx="1249" cy="217" r="1"/><circle cx="1297" cy="217" r="1"/><circle cx="1345" cy="217" r="1"/><circle cx="1441" cy="217" r="1"/><circle cx="1465" cy="217" r="1"/><circle cx="1489" cy="217" r="1"/><circle cx="1705" cy="217" r="1"/><circle cx="1801" cy="217" r="1"/><circle cx="1873" cy="265" r="1"/><circle cx="1873" cy="313" r="1"/><circle cx="1753" cy="361" r="1"/><circle cx="1801" cy="409" r="1"/><circle cx="1849" cy="385" r="1"/><circle cx="1873" cy="361" r="1"/><circle cx="25" cy="529" r="1"/><circle cx="97" cy="505" r="1"/><circle cx="97" cy="529" r="1"/><circle cx="145" cy="529" r="1"/><circle cx="193" cy="457" r="1"/><circle cx="25" cy="601" r="1"/><circle cx="49" cy="625" r="1"/><circle cx="97" cy="577" r="1"/><circle cx="97" cy="601" r="1"/><circle cx="97" cy="625" r="1"/><circle cx="193" cy="601" r="1"/><circle cx="217" cy="457" r="1"/><circle cx="241" cy="529" r="1"/><circle cx="265" cy="529" r="1"/><circle cx="289" cy="505" r="1"/><circle cx="337" cy="505" r="1"/><circle cx="337" cy="529" r="1"/><circle cx="361" cy="481" r="1"/><circle cx="385" cy="505" r="1"/><circle cx="385" cy="529" r="1"/><circle cx="265" cy="625" r="1"/><circle cx="313" cy="625" r="1"/><circle cx="337" cy="553" r="1"/><circle cx="409" cy="529" r="1"/><circle cx="433" cy="529" r="1"/><circle cx="457" cy="457" r="1"/><circle cx="457" cy="481" r="1"/><circle cx="457" cy="505" r="1"/><circle cx="457" cy="529" r="1"/><circle cx="481" cy="505" r="1"/><circle cx="505" cy="505" r="1"/><circle cx="553" cy="457" r="1"/><circle cx="577" cy="529" r="1"/><circle cx="409" cy="625" r="1"/><circle cx="433" cy="601" r="1"/><circle cx="457" cy="577" r="1"/><circle cx="481" cy="625" r="1"/><circle cx="505" cy="577" r="1"/><circle cx="553" cy="577" r="1"/><circle cx="553" cy="625" r="1"/><circle cx="577" cy="577" r="1"/><circle cx="601" cy="529" r="1"/><circle cx="721" cy="505" r="1"/><circle cx="745" cy="457" r="1"/><circle cx="745" cy="529" r="1"/><circle cx="769" cy="457" r="1"/><circle cx="769" cy="481" r="1"/><circle cx="769" cy="529" r="1"/><circle cx="625" cy="553" r="1"/><circle cx="625" cy="625" r="1"/><circle cx="649" cy="577" r="1"/><circle cx="649" cy="601" r="1"/><circle cx="673" cy="553" r="1"/><circle cx="673" cy="625" r="1"/><circle cx="745" cy="553" r="1"/><circle cx="793" cy="505" r="1"/><circle cx="817" cy="505" r="1"/><circle cx="841" cy="481" r="1"/><circle cx="841" cy="529" r="1"/><circle cx="865" cy="505" r="1"/><circle cx="913" cy="505" r="1"/><circle cx="937" cy="457" r="1"/><circle cx="937" cy="481" r="1"/><circle cx="961" cy="457" r="1"/><circle cx="793" cy="577" r="1"/><circle cx="817" cy="601" r="1"/><circle cx="889" cy="553" r="1"/><circle cx="889" cy="625" r="1"/><circle cx="913" cy="553" r="1"/><circle cx="913" cy="601" r="1"/><circle cx="961" cy="553" r="1"/><circle cx="961" cy="577" r="1"/><circle cx="961" cy="601" r="1"/><circle cx="1009" cy="529" r="1"/><circle cx="1033" cy="481" r="1"/><circle cx="1105" cy="457" r="1"/><circle cx="1153" cy="505" r="1"/><circle cx="1033" cy="553" r="1"/><circle cx="1033" cy="625" r="1"/><circle cx="1081" cy="601" r="1"/><circle cx="1081" cy="625" r="1"/><circle cx="1105" cy="625" r="1"/><circle cx="1129" cy="625" r="1"/><circle cx="1153" cy="577" r="1"/><circle cx="1225" cy="457" r="1"/><circle cx="1249" cy="457" r="1"/><circle cx="1249" cy="529" r="1"/><circle cx="1273" cy="505" r="1"/><circle cx="1273" cy="529" r="1"/><circle cx="1297" cy="529" r="1"/><circle cx="1177" cy="601" r="1"/><circle cx="1201" cy="553" r="1"/><circle cx="1201" cy="601" r="1"/><circle cx="1273" cy="553" r="1"/><circle cx="1273" cy="601" r="1"/><circle cx="1273" cy="625" r="1"/><circle cx="1321" cy="601" r="1"/><circle cx="1321" cy="625" r="1"/><circle cx="1369" cy="505" r="1"/><circle cx="1393" cy="457" r="1"/><circle cx="1441" cy="481" r="1"/><circle cx="1441" cy="505" r="1"/><circle cx="1465" cy="457" r="1"/><circle cx="1465" cy="529" r="1"/><circle cx="1513" cy="457" r="1"/><circle cx="1369" cy="553" r="1"/><circle cx="1393" cy="625" r="1"/><circle cx="1417" cy="553" r="1"/><circle cx="1465" cy="601" r="1"/><circle cx="1489" cy="577" r="1"/><circle cx="1489" cy="625" r="1"/><circle cx="1561" cy="481" r="1"/><circle cx="1585" cy="505" r="1"/><circle cx="1609" cy="481" r="1"/><circle cx="1633" cy="457" r="1"/><circle cx="1633" cy="529" r="1"/><circle cx="1657" cy="481" r="1"/><circle cx="1657" cy="505" r="1"/><circle cx="1681" cy="481" r="1"/><circle cx="1681" cy="529" r="1"/><circle cx="1561" cy="601" r="1"/><circle cx="1585" cy="553" r="1"/><circle cx="1585" cy="577" r="1"/><circle cx="1609" cy="553" r="1"/><circle cx="1609" cy="577" r="1"/><circle cx="1633" cy="553" r="1"/><circle cx="1633" cy="625" r="1"/><circle cx="1681" cy="553" r="1"/><circle cx="1681" cy="601" r="1"/><circle cx="1705" cy="601" r="1"/><circle cx="1705" cy="625" r="1"/><circle cx="1753" cy="457" r="1"/><circle cx="1801" cy="481" r="1"/><circle cx="1801" cy="529" r="1"/><circle cx="1825" cy="457" r="1"/><circle cx="1825" cy="505" r="1"/><circle cx="1" cy="505" r="1"/><circle cx="1" cy="625" r="1"/><circle cx="121" cy="433" r="1"/><circle cx="193" cy="433" r="1"/><circle cx="625" cy="433" r="1"/><circle cx="649" cy="433" r="1"/><circle cx="793" cy="433" r="1"/><circle cx="817" cy="433" r="1"/><circle cx="841" cy="433" r="1"/><circle cx="1009" cy="433" r="1"/><circle cx="1033" cy="433" r="1"/><circle cx="1057" cy="433" r="1"/><circle cx="1105" cy="433" r="1"/><circle cx="1177" cy="433" r="1"/><circle cx="1249" cy="433" r="1"/><circle cx="1297" cy="433" r="1"/><circle cx="1321" cy="433" r="1"/><circle cx="1369" cy="433" r="1"/><circle cx="1417" cy="433" r="1"/><circle cx="1441" cy="433" r="1"/><circle cx="1729" cy="433" r="1"/><circle cx="1777" cy="433" r="1"/><circle cx="1873" cy="505" r="1"/><circle cx="1753" cy="553" r="1"/><circle cx="1753" cy="577" r="1"/><circle cx="1753" cy="601" r="1"/><circle cx="1777" cy="553" r="1"/><circle cx="1777" cy="577" r="1"/><circle cx="1801" cy="577" r="1"/><circle cx="1801" cy="625" r="1"/><circle cx="1825" cy="577" r="1"/><circle cx="1825" cy="625" r="1"/><circle cx="1849" cy="553" r="1"/><circle cx="25" cy="721" r="1"/><circle cx="49" cy="745" r="1"/><circle cx="73" cy="745" r="1"/><circle cx="97" cy="673" r="1"/><circle cx="97" cy="745" r="1"/><circle cx="121" cy="673" r="1"/><circle cx="121" cy="721" r="1"/><circle cx="25" cy="793" r="1"/><circle cx="49" cy="841" r="1"/><circle cx="73" cy="841" r="1"/><circle cx="97" cy="769" r="1"/><circle cx="169" cy="817" r="1"/><circle cx="193" cy="769" r="1"/><circle cx="193" cy="817" r="1"/><circle cx="217" cy="721" r="1"/><circle cx="241" cy="697" r="1"/><circle cx="289" cy="673" r="1"/><circle cx="289" cy="745" r="1"/><circle cx="313" cy="721" r="1"/><circle cx="337" cy="697" r="1"/><circle cx="361" cy="697" r="1"/><circle cx="385" cy="673" r="1"/><circle cx="241" cy="793" r="1"/><circle cx="241" cy="817" r="1"/><circle cx="241" cy="841" r="1"/><circle cx="265" cy="841" r="1"/><circle cx="289" cy="769" r="1"/><circle cx="289" cy="817" r="1"/><circle cx="313" cy="769" r="1"/><circle cx="313" cy="793" r="1"/><circle cx="337" cy="817" r="1"/><circle cx="361" cy="769" r="1"/><circle cx="385" cy="793" r="1"/><circle cx="433" cy="673" r="1"/><circle cx="433" cy="721" r="1"/><circle cx="481" cy="697" r="1"/><circle cx="481" cy="721" r="1"/><circle cx="481" cy="745" r="1"/><circle cx="529" cy="697" r="1"/><circle cx="577" cy="697" r="1"/><circle cx="409" cy="793" r="1"/><circle cx="409" cy="817" r="1"/><circle cx="457" cy="841" r="1"/><circle cx="505" cy="769" r="1"/><circle cx="529" cy="769" r="1"/><circle cx="553" cy="769" r="1"/><circle cx="553" cy="817" r="1"/><circle cx="601" cy="673" r="1"/><circle cx="601" cy="721" r="1"/><circle cx="625" cy="697" r="1"/><circle cx="625" cy="721" r="1"/><circle cx="649" cy="697" r="1"/><circle cx="673" cy="745" r="1"/><circle cx="697" cy="673" r="1"/><circle cx="697" cy="721" r="1"/><circle cx="697" cy="745" r="1"/><circle cx="721" cy="745" r="1"/><circle cx="745" cy="673" r="1"/><circle cx="769" cy="697" r="1"/><circle cx="625" cy="793" r="1"/><circle cx="649" cy="769" r="1"/><circle cx="649" cy="793" r="1"/><circle cx="673" cy="769" r="1"/><circle cx="721" cy="841" r="1"/><circle cx="745" cy="841" r="1"/><circle cx="769" cy="769" r="1"/><circle cx="769" cy="793" r="1"/><circle cx="769" cy="817" r="1"/><circle cx="793" cy="745" r="1"/><circle cx="865" cy="697" r="1"/><circle cx="865" cy="745" r="1"/><circle cx="889" cy="697" r="1"/><circle cx="889" cy="721" r="1"/><circle cx="889" cy="745" r="1"/><circle cx="937" cy="673" r="1"/><circle cx="937" cy="721" r="1"/><circle cx="961" cy="697" r="1"/><circle cx="961" cy="721" r="1"/><circle cx="961" cy="745" r="1"/><circle cx="793" cy="841" r="1"/><circle cx="817" cy="841" r="1"/><circle cx="841" cy="841" r="1"/><circle cx="865" cy="793" r="1"/><circle cx="889" cy="793" r="1"/><circle cx="889" cy="841" r="1"/><circle cx="937" cy="793" r="1"/><circle cx="937" cy="817" r="1"/><circle cx="1009" cy="673" r="1"/><circle cx="1009" cy="721" r="1"/><circle cx="1033" cy="745" r="1"/><circle cx="1057" cy="697" r="1"/><circle cx="1081" cy="745" r="1"/><circle cx="1129" cy="673" r="1"/><circle cx="985" cy="817" r="1"/><circle cx="1009" cy="793" r="1"/><circle cx="1033" cy="817" r="1"/><circle cx="1057" cy="769" r="1"/><circle cx="1057" cy="817" r="1"/><circle cx="1081" cy="769" r="1"/><circle cx="1081" cy="817" r="1"/><circle cx="1105" cy="769" r="1"/><circle cx="1129" cy="793" r="1"/><circle cx="1153" cy="793" r="1"/><circle cx="1153" cy="817" r="1"/><circle cx="1153" cy="841" r="1"/><circle cx="1177" cy="697" r="1"/><circle cx="1225" cy="673" r="1"/><circle cx="1249" cy="673" r="1"/><circle cx="1297" cy="673" r="1"/><circle cx="1297" cy="745" r="1"/><circle cx="1321" cy="721" r="1"/><circle cx="1321" cy="745" r="1"/><circle cx="1177" cy="769" r="1"/><circle cx="1177" cy="817" r="1"/><circle cx="1201" cy="841" r="1"/><circle cx="1225" cy="841" r="1"/><circle cx="1249" cy="793" r="1"/><circle cx="1297" cy="769" r="1"/><circle cx="1297" cy="793" r="1"/><circle cx="1321" cy="841" r="1"/><circle cx="1345" cy="817" r="1"/><circle cx="1369" cy="673" r="1"/><circle cx="1369" cy="721" r="1"/><circle cx="1393" cy="721" r="1"/><circle cx="1417" cy="697" r="1"/><circle cx="1441" cy="721" r="1"/><circle cx="1465" cy="673" r="1"/><circle cx="1465" cy="697" r="1"/><circle cx="1489" cy="673" r="1"/><circle cx="1513" cy="673" r="1"/><circle cx="1513" cy="745" r="1"/><circle cx="1537" cy="697" r="1"/><circle cx="1537" cy="745" r="1"/><circle cx="1369" cy="769" r="1"/><circle cx="1393" cy="817" r="1"/><circle cx="1489" cy="769" r="1"/><circle cx="1489" cy="793" r="1"/><circle cx="1585" cy="697" r="1"/><circle cx="1609" cy="697" r="1"/><circle cx="1633" cy="673" r="1"/><circle cx="1633" cy="721" r="1"/><circle cx="1681" cy="745" r="1"/><circle cx="1705" cy="745" r="1"/><circle cx="1729" cy="673" r="1"/><circle cx="1729" cy="745" r="1"/><circle cx="1585" cy="817" r="1"/><circle cx="1633" cy="769" r="1"/><circle cx="1633" cy="841" r="1"/><circle cx="1657" cy="793" r="1"/><circle cx="1681" cy="793" r="1"/><circle cx="1705" cy="817" r="1"/><circle cx="1729" cy="817" r="1"/><circle cx="1753" cy="673" r="1"/><circle cx="1777" cy="673" r="1"/><circle cx="1777" cy="721" r="1"/><circle cx="1825" cy="697" r="1"/><circle cx="1849" cy="673" r="1"/><circle cx="1849" cy="697" r="1"/><circle cx="1849" cy="721" r="1"/><circle cx="1849" cy="745" r="1"/><circle cx="1" cy="697" r="1"/><circle cx="49" cy="649" r="1"/><circle cx="121" cy="649" r="1"/><circle cx="409" cy="649" r="1"/><circle cx="481" cy="649" r="1"/><circle cx="529" cy="649" r="1"/><circle cx="553" cy="649" r="1"/><circle cx="625" cy="649" r="1"/><circle cx="697" cy="649" r="1"/><circle cx="721" cy="649" r="1"/><circle cx="769" cy="649" r="1"/><circle cx="1105" cy="649" r="1"/><circle cx="1225" cy="649" r="1"/><circle cx="1297" cy="649" r="1"/><circle cx="1465" cy="649" r="1"/><circle cx="1777" cy="817" r="1"/><circle cx="1825" cy="817" r="1"/><circle cx="1849" cy="841" r="1"/><circle cx="1873" cy="841" r="1"/><circle cx="49" cy="865" r="1"/><circle cx="145" cy="889" r="1"/><circle cx="145" cy="913" r="1"/><circle cx="193" cy="889" r="1"/><circle cx="25" cy="937" r="1"/><circle cx="73" cy="985" r="1"/><circle cx="97" cy="985" r="1"/><circle cx="121" cy="985" r="1"/><circle cx="145" cy="937" r="1"/><circle cx="193" cy="1009" r="1"/><circle cx="217" cy="913" r="1"/><circle cx="289" cy="865" r="1"/><circle cx="361" cy="913" r="1"/><circle cx="385" cy="913" r="1"/><circle cx="217" cy="937" r="1"/><circle cx="241" cy="937" r="1"/><circle cx="265" cy="937" r="1"/><circle cx="289" cy="937" r="1"/><circle cx="313" cy="961" r="1"/><circle cx="409" cy="889" r="1"/><circle cx="409" cy="913" r="1"/><circle cx="433" cy="865" r="1"/><circle cx="481" cy="913" r="1"/><circle cx="577" cy="865" r="1"/><circle cx="409" cy="961" r="1"/><circle cx="457" cy="937" r="1"/><circle cx="481" cy="937" r="1"/><circle cx="529" cy="937" r="1"/><circle cx="529" cy="961" r="1"/><circle cx="529" cy="1009" r="1"/><circle cx="577" cy="961" r="1"/><circle cx="625" cy="865" r="1"/><circle cx="625" cy="889" r="1"/><circle cx="649" cy="865" r="1"/><circle cx="649" cy="913" r="1"/><circle cx="745" cy="865" r="1"/><circle cx="745" cy="913" r="1"/><circle cx="625" cy="937" r="1"/><circle cx="625" cy="961" r="1"/><circle cx="625" cy="985" r="1"/><circle cx="649" cy="937" r="1"/><circle cx="673" cy="985" r="1"/><circle cx="721" cy="1009" r="1"/><circle cx="745" cy="937" r="1"/><circle cx="769" cy="985" r="1"/><circle cx="793" cy="865" r="1"/><circle cx="793" cy="913" r="1"/><circle cx="817" cy="913" r="1"/><circle cx="841" cy="913" r="1"/><circle cx="865" cy="889" r="1"/><circle cx="889" cy="889" r="1"/><circle cx="889" cy="913" r="1"/><circle cx="913" cy="913" r="1"/><circle cx="817" cy="937" r="1"/><circle cx="841" cy="1009" r="1"/><circle cx="865" cy="937" r="1"/><circle cx="889" cy="961" r="1"/><circle cx="889" cy="1009" r="1"/><circle cx="937" cy="961" r="1"/><circle cx="937" cy="1009" r="1"/><circle cx="1009" cy="913" r="1"/><circle cx="1033" cy="913" r="1"/><circle cx="1057" cy="865" r="1"/><circle cx="1081" cy="889" r="1"/><circle cx="1129" cy="865" r="1"/><circle cx="1129" cy="889" r="1"/><circle cx="1129" cy="913" r="1"/><circle cx="985" cy="937" r="1"/><circle cx="985" cy="1009" r="1"/><circle cx="1009" cy="961" r="1"/><circle cx="1057" cy="985" r="1"/><circle cx="1057" cy="1009" r="1"/><circle cx="1081" cy="937" r="1"/><circle cx="1081" cy="961" r="1"/><circle cx="1129" cy="985" r="1"/><circle cx="1153" cy="961" r="1"/><circle cx="1225" cy="865" r="1"/><circle cx="1225" cy="889" r="1"/><circle cx="1297" cy="865" r="1"/><circle cx="1297" cy="889" r="1"/><circle cx="1321" cy="889" r="1"/><circle cx="1345" cy="865" r="1"/><circle cx="1177" cy="937" r="1"/><circle cx="1177" cy="1009" r="1"/><circle cx="1201" cy="961" r="1"/><circle cx="1201" cy="985" r="1"/><circle cx="1201" cy="1009" r="1"/><circle cx="1225" cy="937" r="1"/><circle cx="1225" cy="961" r="1"/><circle cx="1249" cy="961" r="1"/><circle cx="1321" cy="937" r="1"/><circle cx="1345" cy="985" r="1"/><circle cx="1393" cy="865" r="1"/><circle cx="1393" cy="889" r="1"/><circle cx="1417" cy="865" r="1"/><circle cx="1441" cy="865" r="1"/><circle cx="1489" cy="913" r="1"/><circle cx="1393" cy="961" r="1"/><circle cx="1417" cy="985" r="1"/><circle cx="1417" cy="1009" r="1"/><circle cx="1441" cy="937" r="1"/><circle cx="1489" cy="961" r="1"/><circle cx="1537" cy="961" r="1"/><circle cx="1561" cy="913" r="1"/><circle cx="1585" cy="865" r="1"/><circle cx="1657" cy="889" r="1"/><circle cx="1657" cy="913" r="1"/><circle cx="1705" cy="865" r="1"/><circle cx="1609" cy="937" r="1"/><circle cx="1609" cy="961" r="1"/><circle cx="1609" cy="985" r="1"/><circle cx="1609" cy="1009" r="1"/><circle cx="1633" cy="985" r="1"/><circle cx="1633" cy="1009" r="1"/><circle cx="1657" cy="985" r="1"/><circle cx="1657" cy="1009" r="1"/><circle cx="1681" cy="937" r="1"/><circle cx="1705" cy="937" r="1"/><circle cx="1705" cy="961" r="1"/><circle cx="1705" cy="985" r="1"/><circle cx="1729" cy="961" r="1"/><circle cx="1729" cy="985" r="1"/><circle cx="1753" cy="865" r="1"/><circle cx="1777" cy="889" r="1"/><circle cx="1825" cy="913" r="1"/><circle cx="1849" cy="889" r="1"/><circle cx="1" cy="865" r="1"/><circle cx="1" cy="889" r="1"/><circle cx="1" cy="913" r="1"/><circle cx="1" cy="937" r="1"/><circle cx="1" cy="1009" r="1"/><circle cx="1873" cy="913" r="1"/><circle cx="1753" cy="985" r="1"/><circle cx="1753" cy="1009" r="1"/><circle cx="1777" cy="937" r="1"/><circle cx="1777" cy="961" r="1"/><circle cx="1777" cy="1009" r="1"/><circle cx="1801" cy="937" r="1"/><circle cx="1825" cy="961" r="1"/><circle cx="1825" cy="1009" r="1"/><circle cx="1873" cy="961" r="1"/><circle cx="49" cy="1033" r="1"/><circle cx="193" cy="1033" r="1"/><circle cx="265" cy="1033" r="1"/><circle cx="649" cy="1033" r="1"/><circle cx="721" cy="1033" r="1"/><circle cx="745" cy="1033" r="1"/><circle cx="889" cy="1033" r="1"/><circle cx="937" cy="1033" r="1"/><circle cx="961" cy="1033" r="1"/><circle cx="1153" cy="1033" r="1"/><circle cx="1201" cy="1033" r="1"/><circle cx="1321" cy="1033" r="1"/><circle cx="1465" cy="1033" r="1"/><circle cx="1513" cy="1033" r="1"/><circle cx="1633" cy="1033" r="1"/><circle cx="1" cy="1033" r="1"/><circle cx="49" cy="1057" r="1"/><circle cx="97" cy="1057" r="1"/><circle cx="169" cy="1057" r="1"/><circle cx="313" cy="1057" r="1"/><circle cx="457" cy="1057" r="1"/><circle cx="481" cy="1057" r="1"/><circle cx="553" cy="1057" r="1"/><circle cx="577" cy="1057" r="1"/><circle cx="649" cy="1057" r="1"/><circle cx="721" cy="1057" r="1"/><circle cx="745" cy="1057" r="1"/><circle cx="769" cy="1057" r="1"/><circle cx="793" cy="1057" r="1"/><circle cx="817" cy="1057" r="1"/><circle cx="841" cy="1057" r="1"/><circle cx="865" cy="1057" r="1"/><circle cx="1033" cy="1057" r="1"/><circle cx="1057" cy="1057" r="1"/><circle cx="1105" cy="1057" r="1"/><circle cx="1153" cy="1057" r="1"/><circle cx="1249" cy="1057" r="1"/><circle cx="1345" cy="1057" r="1"/><circle cx="1369" cy="1057" r="1"/><circle cx="1417" cy="1057" r="1"/><circle cx="1489" cy="1057" r="1"/><circle cx="1537" cy="1057" r="1"/><circle cx="1633" cy="1057" r="1"/><circle cx="1705" cy="1057" r="1"/><circle cx="1" cy="1057" r="1"/><circle cx="1777" cy="1057" r="1"/><circle cx="1801" cy="1057" r="1"/><circle cx="1825" cy="1057" r="1"/><circle cx="1849" cy="1057" r="1"/><circle cx="1897" cy="361" r="1"/><circle cx="1897" cy="385" r="1"/><circle cx="1897" cy="505" r="1"/><circle cx="1897" cy="649" r="1"/><circle cx="1897" cy="745" r="1"/><circle cx="1897" cy="769" r="1"/><circle cx="1897" cy="889" r="1"/><circle cx="1897" cy="985" r="1"/></g></svg>