<svg xmlns="http://www.w3.org/2000/svg" viewBox="0 0 512.4 512.4"><g fill="none" stroke="#dbe7ff" stroke-miterlimit="10" stroke-width=".4"><path d="M.2.2v512M15.7 15.7L.2 512.2M31.2 31.2l-31 481M46.7 46.7L.2 512.2M62.3 62.3L.2 512.2M77.8 77.8L.2 512.2M93.3 93.3L.2 512.2M108.8 108.8L.2 512.2M124.3 124.3L.2 512.3M139.8 139.8L.2 512.2M155.4 155.4L.2 512.2M170.9 170.9L.2 512.2M186.4 186.4L.2 512.2M201.9 201.9L.2 512.2M217.4 217.4L.2 512.2M232.9 233L.2 512.1M248.4 248.4L.2 512.2M264 264L.2 512.2M279.5 279.5L.2 512.2M295 295L.2 512.2M310.5 310.5L.2 512.2M326 326L.2 512.2M341.5 341.5L.2 512.2M357 357L.2 512.2M372.6 372.6L.2 512.2M388.1 388L.2 512.3M403.6 403.6L.2 512.2M419.1 419.1L.2 512.2M434.6 434.6L.2 512.2M450.1 450.1L.2 512.2M465.7 465.7L.2 512.2M481.2 481.2l-481 31M496.7 496.7L.2 512.2M512.2 512.2H.2M512.2 512.2V.2M496.7 496.7L512.2.2M481.2 481.2l31-481M465.7 465.7L512.2.2M450.1 450.1L512.2.2M434.6 434.6L512.2.2M419.1 419.1L512.2.2M403.6 403.6L512.2.2M388 388.1L512.3.2M372.6 372.6L512.2.2M357 357L512.2.2M341.5 341.5L512.2.2M326 326L512.2.2M310.5 310.5L512.2.2M295 295L512.2.2M279.5 279.5L512.2.2M264 264L512.2.2M248.4 248.4L512.2.2M233 232.9L512.1.2M217.4 217.4L512.2.2M201.9 201.9L512.2.2M186.4 186.4L512.2.2M170.9 170.9L512.2.2M155.4 155.4L512.2.2M139.8 139.8L512.2.2M124.3 124.3L512.3.2M108.8 108.8L512.2.2M93.3 93.3L512.2.2M77.8 77.8L512.2.2M62.3 62.3L512.2.2M46.7 46.7L512.2.2M31.2 31.2l481-31M15.7 15.7L512.2.2M.2.2h512M.2 512.2h512M15.7 496.7l496.5 15.5M31.2 481.2l481 31M46.7 465.7l465.5 46.5M62.3 450.1l449.9 62.1M77.8 434.6l434.4 77.6M93.3 419.1l418.9 93.1M108.8 403.6l403.4 108.6M124.3 388l388 124.2M139.8 372.6l372.4 139.6M155.4 357l356.8 155.2M170.9 341.5l341.3 170.7M186.4 326l325.8 186.2M201.9 310.5l310.3 201.7M217.4 295l294.8 217.2M233 279.5l279.2 232.7M248.4 264l263.8 248.2M264 248.4l248.2 263.8M279.5 233l232.7 279.2M295 217.4l217.2 294.8M310.5 201.9l201.7 310.3M326 186.4l186.2 325.8M341.5 170.9l170.7 341.3M357 155.4l155.2 356.8M372.6 139.8l139.6 372.4M388 124.3l124.2 388M403.6 108.8l108.6 403.4M419.1 93.3l93.1 418.9M434.6 77.8l77.6 434.4M450.1 62.3l62.1 449.9M465.7 46.7l46.5 465.5M481.2 31.2l31 481M496.7 15.7l15.5 496.5M512.2.2v512M512.2.2H.2M496.7 15.7L.2.2M481.2 31.2L.2.2M465.7 46.7L.2.2M450.1 62.3L.2.2M434.6 77.8L.2.2M419.1 93.3L.2.2M403.6 108.8L.2.2M388.1 124.3L.2.2M372.6 139.8L.2.2M357 155.4L.2.2M341.5 170.9L.2.2M326 186.4L.2.2M310.5 201.9L.2.2M295 217.4L.2.2M279.5 232.9L.2.2M264 248.4L.2.2M248.4 264L.2.2M232.9 279.5L.2.2M217.4 295L.2.2M201.9 310.5L.2.2M186.4 326L.2.2M170.9 341.5L.2.2M155.4 357L.2.2M139.8 372.6L.2.2M124.3 388.1L.2.2M108.8 403.6L.2.2M93.3 419.1L.2.2M77.8 434.6L.2.2M62.3 450.1L.2.2M46.7 465.7L.2.2M31.2 481.2L.2.2M15.7 496.7L.2.2M.2 512.2V.2"/></g></svg>